<?xml version="1.0" encoding="utf-8"?>
<svg xmlns="http://www.w3.org/2000/svg" xmlns:xlink="http://www.w3.org/1999/xlink" width="600" height="400" viewBox="0 0 2400 1600">
<defs>
  <clipPath id="clip650">
    <rect x="0" y="0" width="2400" height="1600"/>
  </clipPath>
</defs>
<path clip-path="url(#clip650)" d="
M0 1600 L2400 1600 L2400 8.88178e-14 L0 8.88178e-14  Z
  " fill="#ffffff" fill-rule="evenodd" fill-opacity="1"/>
<defs>
  <clipPath id="clip651">
    <rect x="480" y="0" width="1681" height="1600"/>
  </clipPath>
</defs>
<path clip-path="url(#clip650)" d="
M189.098 1486.45 L2352.76 1486.45 L2352.76 123.472 L189.098 123.472  Z
  " fill="#ffffff" fill-rule="evenodd" fill-opacity="1"/>
<defs>
  <clipPath id="clip652">
    <rect x="189" y="123" width="2165" height="1364"/>
  </clipPath>
</defs>
<polyline clip-path="url(#clip652)" style="stroke:#000000; stroke-width:2; stroke-opacity:0.1; fill:none" points="
  248.54,1486.45 248.54,123.472 
  "/>
<polyline clip-path="url(#clip652)" style="stroke:#000000; stroke-width:2; stroke-opacity:0.1; fill:none" points="
  696.955,1486.45 696.955,123.472 
  "/>
<polyline clip-path="url(#clip652)" style="stroke:#000000; stroke-width:2; stroke-opacity:0.1; fill:none" points="
  1145.37,1486.45 1145.37,123.472 
  "/>
<polyline clip-path="url(#clip652)" style="stroke:#000000; stroke-width:2; stroke-opacity:0.1; fill:none" points="
  1593.79,1486.45 1593.79,123.472 
  "/>
<polyline clip-path="url(#clip652)" style="stroke:#000000; stroke-width:2; stroke-opacity:0.1; fill:none" points="
  2042.2,1486.45 2042.2,123.472 
  "/>
<polyline clip-path="url(#clip652)" style="stroke:#000000; stroke-width:2; stroke-opacity:0.1; fill:none" points="
  189.098,1341.9 2352.76,1341.9 
  "/>
<polyline clip-path="url(#clip652)" style="stroke:#000000; stroke-width:2; stroke-opacity:0.1; fill:none" points="
  189.098,1087.68 2352.76,1087.68 
  "/>
<polyline clip-path="url(#clip652)" style="stroke:#000000; stroke-width:2; stroke-opacity:0.1; fill:none" points="
  189.098,833.459 2352.76,833.459 
  "/>
<polyline clip-path="url(#clip652)" style="stroke:#000000; stroke-width:2; stroke-opacity:0.1; fill:none" points="
  189.098,579.238 2352.76,579.238 
  "/>
<polyline clip-path="url(#clip652)" style="stroke:#000000; stroke-width:2; stroke-opacity:0.1; fill:none" points="
  189.098,325.017 2352.76,325.017 
  "/>
<polyline clip-path="url(#clip650)" style="stroke:#000000; stroke-width:4; stroke-opacity:1; fill:none" points="
  189.098,1486.45 2352.76,1486.45 
  "/>
<polyline clip-path="url(#clip650)" style="stroke:#000000; stroke-width:4; stroke-opacity:1; fill:none" points="
  189.098,1486.45 189.098,123.472 
  "/>
<polyline clip-path="url(#clip650)" style="stroke:#000000; stroke-width:4; stroke-opacity:1; fill:none" points="
  248.54,1486.45 248.54,1470.09 
  "/>
<polyline clip-path="url(#clip650)" style="stroke:#000000; stroke-width:4; stroke-opacity:1; fill:none" points="
  696.955,1486.45 696.955,1470.09 
  "/>
<polyline clip-path="url(#clip650)" style="stroke:#000000; stroke-width:4; stroke-opacity:1; fill:none" points="
  1145.37,1486.45 1145.37,1470.09 
  "/>
<polyline clip-path="url(#clip650)" style="stroke:#000000; stroke-width:4; stroke-opacity:1; fill:none" points="
  1593.79,1486.45 1593.79,1470.09 
  "/>
<polyline clip-path="url(#clip650)" style="stroke:#000000; stroke-width:4; stroke-opacity:1; fill:none" points="
  2042.2,1486.45 2042.2,1470.09 
  "/>
<polyline clip-path="url(#clip650)" style="stroke:#000000; stroke-width:4; stroke-opacity:1; fill:none" points="
  189.098,1341.9 215.062,1341.9 
  "/>
<polyline clip-path="url(#clip650)" style="stroke:#000000; stroke-width:4; stroke-opacity:1; fill:none" points="
  189.098,1087.68 215.062,1087.68 
  "/>
<polyline clip-path="url(#clip650)" style="stroke:#000000; stroke-width:4; stroke-opacity:1; fill:none" points="
  189.098,833.459 215.062,833.459 
  "/>
<polyline clip-path="url(#clip650)" style="stroke:#000000; stroke-width:4; stroke-opacity:1; fill:none" points="
  189.098,579.238 215.062,579.238 
  "/>
<polyline clip-path="url(#clip650)" style="stroke:#000000; stroke-width:4; stroke-opacity:1; fill:none" points="
  189.098,325.017 215.062,325.017 
  "/>
<path clip-path="url(#clip650)" d="M 0 0 M248.54 1508.44 Q244.929 1508.44 243.1 1512 Q241.295 1515.55 241.295 1522.67 Q241.295 1529.78 243.1 1533.35 Q244.929 1536.89 248.54 1536.89 Q252.174 1536.89 253.98 1533.35 Q255.808 1529.78 255.808 1522.67 Q255.808 1515.55 253.98 1512 Q252.174 1508.44 248.54 1508.44 M248.54 1504.73 Q254.35 1504.73 257.406 1509.34 Q260.484 1513.92 260.484 1522.67 Q260.484 1531.4 257.406 1536.01 Q254.35 1540.59 248.54 1540.59 Q242.73 1540.59 239.651 1536.01 Q236.596 1531.4 236.596 1522.67 Q236.596 1513.92 239.651 1509.34 Q242.73 1504.73 248.54 1504.73 Z" fill="#000000" fill-rule="evenodd" fill-opacity="1" /><path clip-path="url(#clip650)" d="M 0 0 M665.092 1535.98 L681.411 1535.98 L681.411 1539.92 L659.467 1539.92 L659.467 1535.98 Q662.129 1533.23 666.712 1528.6 Q671.319 1523.95 672.499 1522.61 Q674.745 1520.08 675.624 1518.35 Q676.527 1516.59 676.527 1514.9 Q676.527 1512.14 674.583 1510.41 Q672.661 1508.67 669.56 1508.67 Q667.361 1508.67 664.907 1509.43 Q662.476 1510.2 659.699 1511.75 L659.699 1507.03 Q662.523 1505.89 664.976 1505.31 Q667.43 1504.73 669.467 1504.73 Q674.837 1504.73 678.032 1507.42 Q681.226 1510.11 681.226 1514.6 Q681.226 1516.73 680.416 1518.65 Q679.629 1520.54 677.523 1523.14 Q676.944 1523.81 673.842 1527.03 Q670.74 1530.22 665.092 1535.98 Z" fill="#000000" fill-rule="evenodd" fill-opacity="1" /><path clip-path="url(#clip650)" d="M 0 0 M686.527 1505.36 L704.884 1505.36 L704.884 1509.3 L690.81 1509.3 L690.81 1517.77 Q691.828 1517.42 692.847 1517.26 Q693.865 1517.07 694.884 1517.07 Q700.671 1517.07 704.05 1520.24 Q707.43 1523.42 707.43 1528.83 Q707.43 1534.41 703.958 1537.51 Q700.485 1540.59 694.166 1540.59 Q691.99 1540.59 689.722 1540.22 Q687.476 1539.85 685.069 1539.11 L685.069 1534.41 Q687.152 1535.54 689.374 1536.1 Q691.597 1536.66 694.073 1536.66 Q698.078 1536.66 700.416 1534.55 Q702.754 1532.44 702.754 1528.83 Q702.754 1525.22 700.416 1523.11 Q698.078 1521.01 694.073 1521.01 Q692.198 1521.01 690.323 1521.42 Q688.472 1521.84 686.527 1522.72 L686.527 1505.36 Z" fill="#000000" fill-rule="evenodd" fill-opacity="1" /><path clip-path="url(#clip650)" d="M 0 0 M722.499 1508.44 Q718.888 1508.44 717.059 1512 Q715.254 1515.55 715.254 1522.67 Q715.254 1529.78 717.059 1533.35 Q718.888 1536.89 722.499 1536.89 Q726.133 1536.89 727.939 1533.35 Q729.768 1529.78 729.768 1522.67 Q729.768 1515.55 727.939 1512 Q726.133 1508.44 722.499 1508.44 M722.499 1504.73 Q728.309 1504.73 731.365 1509.34 Q734.444 1513.92 734.444 1522.67 Q734.444 1531.4 731.365 1536.01 Q728.309 1540.59 722.499 1540.59 Q716.689 1540.59 713.61 1536.01 Q710.555 1531.4 710.555 1522.67 Q710.555 1513.92 713.61 1509.34 Q716.689 1504.73 722.499 1504.73 Z" fill="#000000" fill-rule="evenodd" fill-opacity="1" /><path clip-path="url(#clip650)" d="M 0 0 M1108.63 1505.36 L1126.99 1505.36 L1126.99 1509.3 L1112.92 1509.3 L1112.92 1517.77 Q1113.94 1517.42 1114.95 1517.26 Q1115.97 1517.07 1116.99 1517.07 Q1122.78 1517.07 1126.16 1520.24 Q1129.54 1523.42 1129.54 1528.83 Q1129.54 1534.41 1126.07 1537.51 Q1122.59 1540.59 1116.27 1540.59 Q1114.1 1540.59 1111.83 1540.22 Q1109.58 1539.85 1107.18 1539.11 L1107.18 1534.41 Q1109.26 1535.54 1111.48 1536.1 Q1113.7 1536.66 1116.18 1536.66 Q1120.19 1536.66 1122.52 1534.55 Q1124.86 1532.44 1124.86 1528.83 Q1124.86 1525.22 1122.52 1523.11 Q1120.19 1521.01 1116.18 1521.01 Q1114.31 1521.01 1112.43 1521.42 Q1110.58 1521.84 1108.63 1522.72 L1108.63 1505.36 Z" fill="#000000" fill-rule="evenodd" fill-opacity="1" /><path clip-path="url(#clip650)" d="M 0 0 M1144.61 1508.44 Q1141 1508.44 1139.17 1512 Q1137.36 1515.55 1137.36 1522.67 Q1137.36 1529.78 1139.17 1533.35 Q1141 1536.89 1144.61 1536.89 Q1148.24 1536.89 1150.05 1533.35 Q1151.88 1529.78 1151.88 1522.67 Q1151.88 1515.55 1150.05 1512 Q1148.24 1508.44 1144.61 1508.44 M1144.61 1504.73 Q1150.42 1504.73 1153.47 1509.34 Q1156.55 1513.92 1156.55 1522.67 Q1156.55 1531.4 1153.47 1536.01 Q1150.42 1540.59 1144.61 1540.59 Q1138.8 1540.59 1135.72 1536.01 Q1132.66 1531.4 1132.66 1522.67 Q1132.66 1513.92 1135.72 1509.34 Q1138.8 1504.73 1144.61 1504.73 Z" fill="#000000" fill-rule="evenodd" fill-opacity="1" /><path clip-path="url(#clip650)" d="M 0 0 M1171.62 1508.44 Q1168.01 1508.44 1166.18 1512 Q1164.38 1515.55 1164.38 1522.67 Q1164.38 1529.78 1166.18 1533.35 Q1168.01 1536.89 1171.62 1536.89 Q1175.25 1536.89 1177.06 1533.35 Q1178.89 1529.78 1178.89 1522.67 Q1178.89 1515.55 1177.06 1512 Q1175.25 1508.44 1171.62 1508.44 M1171.62 1504.73 Q1177.43 1504.73 1180.49 1509.34 Q1183.56 1513.92 1183.56 1522.67 Q1183.56 1531.4 1180.49 1536.01 Q1177.43 1540.59 1171.62 1540.59 Q1165.81 1540.59 1162.73 1536.01 Q1159.68 1531.4 1159.68 1522.67 Q1159.68 1513.92 1162.73 1509.34 Q1165.81 1504.73 1171.62 1504.73 Z" fill="#000000" fill-rule="evenodd" fill-opacity="1" /><path clip-path="url(#clip650)" d="M 0 0 M1556.16 1505.36 L1578.38 1505.36 L1578.38 1507.35 L1565.83 1539.92 L1560.95 1539.92 L1572.76 1509.3 L1556.16 1509.3 L1556.16 1505.36 Z" fill="#000000" fill-rule="evenodd" fill-opacity="1" /><path clip-path="url(#clip650)" d="M 0 0 M1583.5 1505.36 L1601.85 1505.36 L1601.85 1509.3 L1587.78 1509.3 L1587.78 1517.77 Q1588.8 1517.42 1589.82 1517.26 Q1590.83 1517.07 1591.85 1517.07 Q1597.64 1517.07 1601.02 1520.24 Q1604.4 1523.42 1604.4 1528.83 Q1604.4 1534.41 1600.93 1537.51 Q1597.45 1540.59 1591.14 1540.59 Q1588.96 1540.59 1586.69 1540.22 Q1584.45 1539.85 1582.04 1539.11 L1582.04 1534.41 Q1584.12 1535.54 1586.34 1536.1 Q1588.57 1536.66 1591.04 1536.66 Q1595.05 1536.66 1597.39 1534.55 Q1599.72 1532.44 1599.72 1528.83 Q1599.72 1525.22 1597.39 1523.11 Q1595.05 1521.01 1591.04 1521.01 Q1589.17 1521.01 1587.29 1521.42 Q1585.44 1521.84 1583.5 1522.72 L1583.5 1505.36 Z" fill="#000000" fill-rule="evenodd" fill-opacity="1" /><path clip-path="url(#clip650)" d="M 0 0 M1619.47 1508.44 Q1615.86 1508.44 1614.03 1512 Q1612.22 1515.55 1612.22 1522.67 Q1612.22 1529.78 1614.03 1533.35 Q1615.86 1536.89 1619.47 1536.89 Q1623.1 1536.89 1624.91 1533.35 Q1626.74 1529.78 1626.74 1522.67 Q1626.74 1515.55 1624.91 1512 Q1623.1 1508.44 1619.47 1508.44 M1619.47 1504.73 Q1625.28 1504.73 1628.33 1509.34 Q1631.41 1513.92 1631.41 1522.67 Q1631.41 1531.4 1628.33 1536.01 Q1625.28 1540.59 1619.47 1540.59 Q1613.66 1540.59 1610.58 1536.01 Q1607.52 1531.4 1607.52 1522.67 Q1607.52 1513.92 1610.58 1509.34 Q1613.66 1504.73 1619.47 1504.73 Z" fill="#000000" fill-rule="evenodd" fill-opacity="1" /><path clip-path="url(#clip650)" d="M 0 0 M1992.06 1535.98 L1999.7 1535.98 L1999.7 1509.62 L1991.39 1511.29 L1991.39 1507.03 L1999.66 1505.36 L2004.33 1505.36 L2004.33 1535.98 L2011.97 1535.98 L2011.97 1539.92 L1992.06 1539.92 L1992.06 1535.98 Z" fill="#000000" fill-rule="evenodd" fill-opacity="1" /><path clip-path="url(#clip650)" d="M 0 0 M2027.04 1508.44 Q2023.43 1508.44 2021.6 1512 Q2019.79 1515.55 2019.79 1522.67 Q2019.79 1529.78 2021.6 1533.35 Q2023.43 1536.89 2027.04 1536.89 Q2030.67 1536.89 2032.48 1533.35 Q2034.31 1529.78 2034.31 1522.67 Q2034.31 1515.55 2032.48 1512 Q2030.67 1508.44 2027.04 1508.44 M2027.04 1504.73 Q2032.85 1504.73 2035.91 1509.34 Q2038.98 1513.92 2038.98 1522.67 Q2038.98 1531.4 2035.91 1536.01 Q2032.85 1540.59 2027.04 1540.59 Q2021.23 1540.59 2018.15 1536.01 Q2015.1 1531.4 2015.1 1522.67 Q2015.1 1513.92 2018.15 1509.34 Q2021.23 1504.73 2027.04 1504.73 Z" fill="#000000" fill-rule="evenodd" fill-opacity="1" /><path clip-path="url(#clip650)" d="M 0 0 M2054.05 1508.44 Q2050.44 1508.44 2048.61 1512 Q2046.81 1515.55 2046.81 1522.67 Q2046.81 1529.78 2048.61 1533.35 Q2050.44 1536.89 2054.05 1536.89 Q2057.69 1536.89 2059.49 1533.35 Q2061.32 1529.78 2061.32 1522.67 Q2061.32 1515.55 2059.49 1512 Q2057.69 1508.44 2054.05 1508.44 M2054.05 1504.73 Q2059.86 1504.73 2062.92 1509.34 Q2066 1513.92 2066 1522.67 Q2066 1531.4 2062.92 1536.01 Q2059.86 1540.59 2054.05 1540.59 Q2048.24 1540.59 2045.16 1536.01 Q2042.11 1531.4 2042.11 1522.67 Q2042.11 1513.92 2045.16 1509.34 Q2048.24 1504.73 2054.05 1504.73 Z" fill="#000000" fill-rule="evenodd" fill-opacity="1" /><path clip-path="url(#clip650)" d="M 0 0 M2081.07 1508.44 Q2077.46 1508.44 2075.63 1512 Q2073.82 1515.55 2073.82 1522.67 Q2073.82 1529.78 2075.63 1533.35 Q2077.46 1536.89 2081.07 1536.89 Q2084.7 1536.89 2086.51 1533.35 Q2088.34 1529.78 2088.34 1522.67 Q2088.34 1515.55 2086.51 1512 Q2084.7 1508.44 2081.07 1508.44 M2081.07 1504.73 Q2086.88 1504.73 2089.93 1509.34 Q2093.01 1513.92 2093.01 1522.67 Q2093.01 1531.4 2089.93 1536.01 Q2086.88 1540.59 2081.07 1540.59 Q2075.26 1540.59 2072.18 1536.01 Q2069.12 1531.4 2069.12 1522.67 Q2069.12 1513.92 2072.18 1509.34 Q2075.26 1504.73 2081.07 1504.73 Z" fill="#000000" fill-rule="evenodd" fill-opacity="1" /><path clip-path="url(#clip650)" d="M 0 0 M64.7977 1355.25 L72.4365 1355.25 L72.4365 1328.88 L64.1264 1330.55 L64.1264 1326.29 L72.3902 1324.62 L77.0661 1324.62 L77.0661 1355.25 L84.705 1355.25 L84.705 1359.18 L64.7977 1359.18 L64.7977 1355.25 Z" fill="#000000" fill-rule="evenodd" fill-opacity="1" /><path clip-path="url(#clip650)" d="M 0 0 M103.941 1340.55 Q107.297 1341.27 109.172 1343.53 Q111.071 1345.8 111.071 1349.14 Q111.071 1354.25 107.552 1357.05 Q104.034 1359.85 97.5521 1359.85 Q95.3762 1359.85 93.0614 1359.41 Q90.7698 1359 88.3161 1358.14 L88.3161 1353.63 Q90.2605 1354.76 92.5753 1355.34 Q94.8901 1355.92 97.4132 1355.92 Q101.811 1355.92 104.103 1354.18 Q106.418 1352.45 106.418 1349.14 Q106.418 1346.08 104.265 1344.37 Q102.135 1342.63 98.316 1342.63 L94.2883 1342.63 L94.2883 1338.79 L98.5012 1338.79 Q101.95 1338.79 103.779 1337.42 Q105.608 1336.03 105.608 1333.44 Q105.608 1330.78 103.71 1329.37 Q101.835 1327.93 98.316 1327.93 Q96.3947 1327.93 94.1957 1328.35 Q91.9966 1328.77 89.3577 1329.64 L89.3577 1325.48 Q92.0197 1324.74 94.3346 1324.37 Q96.6725 1324 98.7327 1324 Q104.057 1324 107.159 1326.43 Q110.26 1328.83 110.26 1332.96 Q110.26 1335.83 108.617 1337.82 Q106.973 1339.78 103.941 1340.55 Z" fill="#000000" fill-rule="evenodd" fill-opacity="1" /><path clip-path="url(#clip650)" d="M 0 0 M126.14 1327.7 Q122.529 1327.7 120.7 1331.27 Q118.895 1334.81 118.895 1341.94 Q118.895 1349.04 120.7 1352.61 Q122.529 1356.15 126.14 1356.15 Q129.774 1356.15 131.58 1352.61 Q133.408 1349.04 133.408 1341.94 Q133.408 1334.81 131.58 1331.27 Q129.774 1327.7 126.14 1327.7 M126.14 1324 Q131.95 1324 135.006 1328.6 Q138.084 1333.19 138.084 1341.94 Q138.084 1350.66 135.006 1355.27 Q131.95 1359.85 126.14 1359.85 Q120.33 1359.85 117.251 1355.27 Q114.196 1350.66 114.196 1341.94 Q114.196 1333.19 117.251 1328.6 Q120.33 1324 126.14 1324 Z" fill="#000000" fill-rule="evenodd" fill-opacity="1" /><path clip-path="url(#clip650)" d="M 0 0 M153.154 1327.7 Q149.543 1327.7 147.714 1331.27 Q145.908 1334.81 145.908 1341.94 Q145.908 1349.04 147.714 1352.61 Q149.543 1356.15 153.154 1356.15 Q156.788 1356.15 158.593 1352.61 Q160.422 1349.04 160.422 1341.94 Q160.422 1334.81 158.593 1331.27 Q156.788 1327.7 153.154 1327.7 M153.154 1324 Q158.964 1324 162.019 1328.6 Q165.098 1333.19 165.098 1341.94 Q165.098 1350.66 162.019 1355.27 Q158.964 1359.85 153.154 1359.85 Q147.344 1359.85 144.265 1355.27 Q141.209 1350.66 141.209 1341.94 Q141.209 1333.19 144.265 1328.6 Q147.344 1324 153.154 1324 Z" fill="#000000" fill-rule="evenodd" fill-opacity="1" /><path clip-path="url(#clip650)" d="M 0 0 M63.6634 1101.03 L71.3023 1101.03 L71.3023 1074.66 L62.9921 1076.33 L62.9921 1072.07 L71.256 1070.4 L75.9319 1070.4 L75.9319 1101.03 L83.5707 1101.03 L83.5707 1104.96 L63.6634 1104.96 L63.6634 1101.03 Z" fill="#000000" fill-rule="evenodd" fill-opacity="1" /><path clip-path="url(#clip650)" d="M 0 0 M101.487 1074.47 L89.6818 1092.92 L101.487 1092.92 L101.487 1074.47 M100.26 1070.4 L106.14 1070.4 L106.14 1092.92 L111.071 1092.92 L111.071 1096.81 L106.14 1096.81 L106.14 1104.96 L101.487 1104.96 L101.487 1096.81 L85.8855 1096.81 L85.8855 1092.3 L100.26 1070.4 Z" fill="#000000" fill-rule="evenodd" fill-opacity="1" /><path clip-path="url(#clip650)" d="M 0 0 M126.14 1073.48 Q122.529 1073.48 120.7 1077.04 Q118.895 1080.59 118.895 1087.72 Q118.895 1094.82 120.7 1098.39 Q122.529 1101.93 126.14 1101.93 Q129.774 1101.93 131.58 1098.39 Q133.408 1094.82 133.408 1087.72 Q133.408 1080.59 131.58 1077.04 Q129.774 1073.48 126.14 1073.48 M126.14 1069.78 Q131.95 1069.78 135.006 1074.38 Q138.084 1078.97 138.084 1087.72 Q138.084 1096.44 135.006 1101.05 Q131.95 1105.63 126.14 1105.63 Q120.33 1105.63 117.251 1101.05 Q114.196 1096.44 114.196 1087.72 Q114.196 1078.97 117.251 1074.38 Q120.33 1069.78 126.14 1069.78 Z" fill="#000000" fill-rule="evenodd" fill-opacity="1" /><path clip-path="url(#clip650)" d="M 0 0 M153.154 1073.48 Q149.543 1073.48 147.714 1077.04 Q145.908 1080.59 145.908 1087.72 Q145.908 1094.82 147.714 1098.39 Q149.543 1101.93 153.154 1101.93 Q156.788 1101.93 158.593 1098.39 Q160.422 1094.82 160.422 1087.72 Q160.422 1080.59 158.593 1077.04 Q156.788 1073.48 153.154 1073.48 M153.154 1069.78 Q158.964 1069.78 162.019 1074.38 Q165.098 1078.97 165.098 1087.72 Q165.098 1096.44 162.019 1101.05 Q158.964 1105.63 153.154 1105.63 Q147.344 1105.63 144.265 1101.05 Q141.209 1096.44 141.209 1087.72 Q141.209 1078.97 144.265 1074.38 Q147.344 1069.78 153.154 1069.78 Z" fill="#000000" fill-rule="evenodd" fill-opacity="1" /><path clip-path="url(#clip650)" d="M 0 0 M65.1449 846.804 L72.7837 846.804 L72.7837 820.439 L64.4736 822.105 L64.4736 817.846 L72.7374 816.179 L77.4133 816.179 L77.4133 846.804 L85.0522 846.804 L85.0522 850.739 L65.1449 850.739 L65.1449 846.804 Z" fill="#000000" fill-rule="evenodd" fill-opacity="1" /><path clip-path="url(#clip650)" d="M 0 0 M90.1679 816.179 L108.524 816.179 L108.524 820.115 L94.4503 820.115 L94.4503 828.587 Q95.4688 828.24 96.4873 828.077 Q97.5058 827.892 98.5243 827.892 Q104.311 827.892 107.691 831.064 Q111.071 834.235 111.071 839.651 Q111.071 845.23 107.598 848.332 Q104.126 851.411 97.8068 851.411 Q95.6308 851.411 93.3623 851.04 Q91.117 850.67 88.7096 849.929 L88.7096 845.23 Q90.7929 846.364 93.0151 846.92 Q95.2373 847.476 97.7142 847.476 Q101.719 847.476 104.057 845.369 Q106.395 843.263 106.395 839.651 Q106.395 836.04 104.057 833.934 Q101.719 831.827 97.7142 831.827 Q95.8392 831.827 93.9642 832.244 Q92.1123 832.661 90.1679 833.54 L90.1679 816.179 Z" fill="#000000" fill-rule="evenodd" fill-opacity="1" /><path clip-path="url(#clip650)" d="M 0 0 M126.14 819.258 Q122.529 819.258 120.7 822.823 Q118.895 826.365 118.895 833.494 Q118.895 840.601 120.7 844.165 Q122.529 847.707 126.14 847.707 Q129.774 847.707 131.58 844.165 Q133.408 840.601 133.408 833.494 Q133.408 826.365 131.58 822.823 Q129.774 819.258 126.14 819.258 M126.14 815.554 Q131.95 815.554 135.006 820.161 Q138.084 824.744 138.084 833.494 Q138.084 842.221 135.006 846.827 Q131.95 851.411 126.14 851.411 Q120.33 851.411 117.251 846.827 Q114.196 842.221 114.196 833.494 Q114.196 824.744 117.251 820.161 Q120.33 815.554 126.14 815.554 Z" fill="#000000" fill-rule="evenodd" fill-opacity="1" /><path clip-path="url(#clip650)" d="M 0 0 M153.154 819.258 Q149.543 819.258 147.714 822.823 Q145.908 826.365 145.908 833.494 Q145.908 840.601 147.714 844.165 Q149.543 847.707 153.154 847.707 Q156.788 847.707 158.593 844.165 Q160.422 840.601 160.422 833.494 Q160.422 826.365 158.593 822.823 Q156.788 819.258 153.154 819.258 M153.154 815.554 Q158.964 815.554 162.019 820.161 Q165.098 824.744 165.098 833.494 Q165.098 842.221 162.019 846.827 Q158.964 851.411 153.154 851.411 Q147.344 851.411 144.265 846.827 Q141.209 842.221 141.209 833.494 Q141.209 824.744 144.265 820.161 Q147.344 815.554 153.154 815.554 Z" fill="#000000" fill-rule="evenodd" fill-opacity="1" /><path clip-path="url(#clip650)" d="M 0 0 M63.9875 592.583 L71.6263 592.583 L71.6263 566.217 L63.3162 567.884 L63.3162 563.625 L71.58 561.958 L76.2559 561.958 L76.2559 592.583 L83.8948 592.583 L83.8948 596.518 L63.9875 596.518 L63.9875 592.583 Z" fill="#000000" fill-rule="evenodd" fill-opacity="1" /><path clip-path="url(#clip650)" d="M 0 0 M99.5429 577.375 Q96.3947 577.375 94.5429 579.528 Q92.7142 581.68 92.7142 585.43 Q92.7142 589.157 94.5429 591.333 Q96.3947 593.486 99.5429 593.486 Q102.691 593.486 104.52 591.333 Q106.372 589.157 106.372 585.43 Q106.372 581.68 104.52 579.528 Q102.691 577.375 99.5429 577.375 M108.825 562.722 L108.825 566.981 Q107.066 566.148 105.26 565.708 Q103.478 565.268 101.719 565.268 Q97.0892 565.268 94.6355 568.393 Q92.2049 571.518 91.8577 577.838 Q93.2234 575.824 95.2836 574.759 Q97.3438 573.671 99.8206 573.671 Q105.029 573.671 108.038 576.842 Q111.071 579.991 111.071 585.43 Q111.071 590.754 107.922 593.972 Q104.774 597.19 99.5429 597.19 Q93.5475 597.19 90.3762 592.606 Q87.205 588 87.205 579.273 Q87.205 571.079 91.0938 566.217 Q94.9827 561.333 101.534 561.333 Q103.293 561.333 105.075 561.68 Q106.881 562.028 108.825 562.722 Z" fill="#000000" fill-rule="evenodd" fill-opacity="1" /><path clip-path="url(#clip650)" d="M 0 0 M126.14 565.037 Q122.529 565.037 120.7 568.602 Q118.895 572.143 118.895 579.273 Q118.895 586.379 120.7 589.944 Q122.529 593.486 126.14 593.486 Q129.774 593.486 131.58 589.944 Q133.408 586.379 133.408 579.273 Q133.408 572.143 131.58 568.602 Q129.774 565.037 126.14 565.037 M126.14 561.333 Q131.95 561.333 135.006 565.94 Q138.084 570.523 138.084 579.273 Q138.084 588 135.006 592.606 Q131.95 597.19 126.14 597.19 Q120.33 597.19 117.251 592.606 Q114.196 588 114.196 579.273 Q114.196 570.523 117.251 565.94 Q120.33 561.333 126.14 561.333 Z" fill="#000000" fill-rule="evenodd" fill-opacity="1" /><path clip-path="url(#clip650)" d="M 0 0 M153.154 565.037 Q149.543 565.037 147.714 568.602 Q145.908 572.143 145.908 579.273 Q145.908 586.379 147.714 589.944 Q149.543 593.486 153.154 593.486 Q156.788 593.486 158.593 589.944 Q160.422 586.379 160.422 579.273 Q160.422 572.143 158.593 568.602 Q156.788 565.037 153.154 565.037 M153.154 561.333 Q158.964 561.333 162.019 565.94 Q165.098 570.523 165.098 579.273 Q165.098 588 162.019 592.606 Q158.964 597.19 153.154 597.19 Q147.344 597.19 144.265 592.606 Q141.209 588 141.209 579.273 Q141.209 570.523 144.265 565.94 Q147.344 561.333 153.154 561.333 Z" fill="#000000" fill-rule="evenodd" fill-opacity="1" /><path clip-path="url(#clip650)" d="M 0 0 M65.0523 338.362 L72.6911 338.362 L72.6911 311.996 L64.381 313.663 L64.381 309.404 L72.6449 307.737 L77.3208 307.737 L77.3208 338.362 L84.9596 338.362 L84.9596 342.297 L65.0523 342.297 L65.0523 338.362 Z" fill="#000000" fill-rule="evenodd" fill-opacity="1" /><path clip-path="url(#clip650)" d="M 0 0 M88.8485 307.737 L111.071 307.737 L111.071 309.728 L98.5243 342.297 L93.6401 342.297 L105.446 311.672 L88.8485 311.672 L88.8485 307.737 Z" fill="#000000" fill-rule="evenodd" fill-opacity="1" /><path clip-path="url(#clip650)" d="M 0 0 M126.14 310.816 Q122.529 310.816 120.7 314.381 Q118.895 317.922 118.895 325.052 Q118.895 332.158 120.7 335.723 Q122.529 339.265 126.14 339.265 Q129.774 339.265 131.58 335.723 Q133.408 332.158 133.408 325.052 Q133.408 317.922 131.58 314.381 Q129.774 310.816 126.14 310.816 M126.14 307.112 Q131.95 307.112 135.006 311.719 Q138.084 316.302 138.084 325.052 Q138.084 333.779 135.006 338.385 Q131.95 342.968 126.14 342.968 Q120.33 342.968 117.251 338.385 Q114.196 333.779 114.196 325.052 Q114.196 316.302 117.251 311.719 Q120.33 307.112 126.14 307.112 Z" fill="#000000" fill-rule="evenodd" fill-opacity="1" /><path clip-path="url(#clip650)" d="M 0 0 M153.154 310.816 Q149.543 310.816 147.714 314.381 Q145.908 317.922 145.908 325.052 Q145.908 332.158 147.714 335.723 Q149.543 339.265 153.154 339.265 Q156.788 339.265 158.593 335.723 Q160.422 332.158 160.422 325.052 Q160.422 317.922 158.593 314.381 Q156.788 310.816 153.154 310.816 M153.154 307.112 Q158.964 307.112 162.019 311.719 Q165.098 316.302 165.098 325.052 Q165.098 333.779 162.019 338.385 Q158.964 342.968 153.154 342.968 Q147.344 342.968 144.265 338.385 Q141.209 333.779 141.209 325.052 Q141.209 316.302 144.265 311.719 Q147.344 307.112 153.154 307.112 Z" fill="#000000" fill-rule="evenodd" fill-opacity="1" /><path clip-path="url(#clip650)" d="M 0 0 M1199.71 12.096 L1237.95 12.096 L1237.95 18.9825 L1207.89 18.9825 L1207.89 36.8875 L1236.7 36.8875 L1236.7 43.7741 L1207.89 43.7741 L1207.89 65.6895 L1238.68 65.6895 L1238.68 72.576 L1199.71 72.576 L1199.71 12.096 Z" fill="#000000" fill-rule="evenodd" fill-opacity="1" /><path clip-path="url(#clip650)" d="M 0 0 M1246.82 12.096 L1255.01 12.096 L1255.01 65.6895 L1284.46 65.6895 L1284.46 72.576 L1246.82 72.576 L1246.82 12.096 Z" fill="#000000" fill-rule="evenodd" fill-opacity="1" /><path clip-path="url(#clip650)" d="M 0 0 M1314.19 17.6457 Q1305.28 17.6457 1300.01 24.2892 Q1294.79 30.9327 1294.79 42.3968 Q1294.79 53.8203 1300.01 60.4638 Q1305.28 67.1073 1314.19 67.1073 Q1323.1 67.1073 1328.29 60.4638 Q1333.51 53.8203 1333.51 42.3968 Q1333.51 30.9327 1328.29 24.2892 Q1323.1 17.6457 1314.19 17.6457 M1314.19 11.0023 Q1326.91 11.0023 1334.53 19.5497 Q1342.14 28.0566 1342.14 42.3968 Q1342.14 56.6965 1334.53 65.2439 Q1326.91 73.7508 1314.19 73.7508 Q1301.43 73.7508 1293.77 65.2439 Q1286.16 56.737 1286.16 42.3968 Q1286.16 28.0566 1293.77 19.5497 Q1301.43 11.0023 1314.19 11.0023 Z" fill="#000000" fill-rule="evenodd" fill-opacity="1" /><polyline clip-path="url(#clip652)" style="stroke:#009af9; stroke-width:12; stroke-opacity:1; fill:none" points="
  250.334,393.691 252.127,791.237 253.921,723.676 255.715,809.198 257.508,840.468 259.302,623.989 261.096,846.761 262.889,836.649 264.683,696.201 266.477,929.546 
  268.27,590.348 270.064,1244.95 271.858,573.308 273.651,857.199 275.445,445.147 277.239,491.428 279.032,657.069 280.826,837.129 282.62,862.303 284.413,960.015 
  286.207,712.201 288.001,1052.79 289.794,581.739 291.588,974.868 293.382,916.725 295.175,442.162 296.969,919.451 298.763,966.443 300.556,1302.56 302.35,473.299 
  304.144,1222.18 305.937,1175.18 307.731,691.24 309.524,608.351 311.318,1186.64 313.112,767.994 314.905,1001.88 316.699,838.945 318.493,890.812 320.286,888.976 
  322.08,937.366 323.874,1325.55 325.667,950.486 327.461,390.166 329.255,1080.74 331.048,478.04 332.842,470.499 334.636,686.268 336.429,1155.4 338.223,1015.41 
  340.017,733.291 341.81,794.233 343.604,563.575 345.398,862.885 347.191,741.948 348.985,574.346 350.779,1194.9 352.572,866.424 354.366,381.609 356.16,614.043 
  357.953,961.981 359.747,725.798 361.541,1031.54 363.334,583.832 365.128,595.056 366.922,977.684 368.715,1100.82 370.509,734.529 372.303,851.491 374.096,735.597 
  375.89,904.101 377.684,590.43 379.477,1225.11 381.271,874.484 383.065,1058.39 384.858,660.357 386.652,742.416 388.446,955.654 390.239,795.09 392.033,1021.73 
  393.827,968.953 395.62,436.389 397.414,713.913 399.208,568.237 401.001,843.902 402.795,1316.02 404.589,750.702 406.382,635.774 408.176,1189.78 409.97,720.02 
  411.763,1021.95 413.557,888.689 415.351,788.785 417.144,1059.16 418.938,1058.87 420.731,747.875 422.525,885.183 424.319,1229.73 426.112,1004.39 427.906,732.068 
  429.7,1214.81 431.493,620.542 433.287,970.614 435.081,842.455 436.874,978.617 438.668,394.512 440.462,525.661 442.255,1073.14 444.049,867.368 445.843,604.263 
  447.636,696.5 449.43,876.238 451.224,697.1 453.017,1033.72 454.811,712.629 456.605,834.162 458.398,1012.01 460.192,825.166 461.986,1053.7 463.779,868.03 
  465.573,1076.25 467.367,860.025 469.16,596.255 470.954,595.53 472.748,619.719 474.541,751.433 476.335,681.221 478.129,916.634 479.922,1154.24 481.716,734.644 
  483.51,1064.77 485.303,851.892 487.097,585.316 488.891,807.516 490.684,722.1 492.478,1335.16 494.272,1066.44 496.065,648.856 497.859,725.974 499.653,967.79 
  501.446,489.344 503.24,729.757 505.034,1064.81 506.827,772.035 508.621,696.902 510.415,784.843 512.208,577.63 514.002,712.553 515.796,1178.11 517.589,1018.79 
  519.383,545.854 521.177,574.351 522.97,966.627 524.764,954.431 526.558,837.528 528.351,473.116 530.145,480.649 531.938,839.862 533.732,724.784 535.526,666.535 
  537.319,1137.52 539.113,359.795 540.907,1076.34 542.7,1402.54 544.494,1041.3 546.288,610.752 548.081,973.889 549.875,802.907 551.669,813.828 553.462,461.574 
  555.256,769.239 557.05,1053.26 558.843,695.975 560.637,836.618 562.431,1163.62 564.224,757.915 566.018,1382.08 567.812,681.656 569.605,892.004 571.399,796.518 
  573.193,884.901 574.986,700.242 576.78,1158.67 578.574,946.291 580.367,1038.87 582.161,794.507 583.955,1065.72 585.748,690.794 587.542,1390.07 589.336,392.033 
  591.129,889.795 592.923,1183.28 594.717,420.785 596.51,852.144 598.304,554.118 600.098,1018.4 601.891,674.976 603.685,1066.9 605.479,1043.96 607.272,932.376 
  609.066,678.144 610.86,604.16 612.653,1000.65 614.447,956.664 616.241,1124.83 618.034,378.362 619.828,670.528 621.622,837.035 623.415,870.417 625.209,1194.42 
  627.003,573.824 628.796,667.803 630.59,304.785 632.384,1047.74 634.177,983.392 635.971,1048.17 637.765,939.501 639.558,766.774 641.352,1156.93 643.146,601.622 
  644.939,783.887 646.733,550.459 648.526,584.118 650.32,654.419 652.114,893.189 653.907,723.121 655.701,1001.86 657.495,1356.57 659.288,589.908 661.082,1161.39 
  662.876,1110.7 664.669,1250.89 666.463,297.904 668.257,578.029 670.05,437.938 671.844,1371.19 673.638,969.244 675.431,538.132 677.225,640.697 679.019,1025.22 
  680.812,712.682 682.606,1223.01 684.4,362.052 686.193,1166.92 687.987,675.486 689.781,480.154 691.574,292.965 693.368,1155.46 695.162,847.816 696.955,889.052 
  698.749,701.027 700.543,530.921 702.336,567.028 704.13,703.699 705.924,1234.15 707.717,1031.89 709.511,477.265 711.305,353.753 713.098,286.617 714.892,1127.11 
  716.686,500.999 718.479,876.104 720.273,1053.33 722.067,1015.91 723.86,717.112 725.654,906.466 727.448,900.252 729.241,1000.14 731.035,816.789 732.829,1384.03 
  734.622,1258.06 736.416,789.63 738.21,670.629 740.003,1134.78 741.797,674.897 743.591,917.648 745.384,1083.73 747.178,694.383 748.972,601.677 750.765,931.416 
  752.559,553.23 754.353,277.582 756.146,488.72 757.94,877.557 759.733,842.594 761.527,1391.23 763.321,587.254 765.114,1020.48 766.908,1036.37 768.702,334.513 
  770.495,832.097 772.289,603.189 774.083,545.53 775.876,1014.7 777.67,1213.33 779.464,1106.99 781.257,267.115 783.051,913.889 784.845,1006.07 786.638,1264.67 
  788.432,1050.58 790.226,317.461 792.019,938.386 793.813,540.16 795.607,587.818 797.4,1042.15 799.194,913.688 800.988,799.147 802.781,483.879 804.575,1161.77 
  806.369,767.784 808.162,1168.58 809.956,637.059 811.75,626.247 813.543,713.568 815.337,1029.7 817.131,1403.24 818.924,371.442 820.718,1086.29 822.512,1016.4 
  824.305,1320.81 826.099,938.052 827.893,461.721 829.686,793.63 831.48,1153.36 833.274,611.593 835.067,238.483 836.861,922.214 838.655,701.651 840.448,628.114 
  842.242,1426.94 844.036,557.912 845.829,450.993 847.623,692.143 849.417,838.94 851.21,1041.02 853.004,603.847 854.798,1010.39 856.591,547.545 858.385,608.7 
  860.179,753.609 861.972,483.823 863.766,645.471 865.56,444.149 867.353,447.143 869.147,219.55 870.94,1171.29 872.734,1135.52 874.528,1062.11 876.321,683.182 
  878.115,982.841 879.909,1097.01 881.702,531.161 883.496,599.986 885.29,795.897 887.083,425.317 888.877,779.117 890.671,1348.15 892.464,680.452 894.258,824.475 
  896.052,952.615 897.845,1175.73 899.639,1032.07 901.433,214.097 903.226,917.573 905.02,1021.45 906.814,457.23 908.607,915.874 910.401,901.972 912.195,597.754 
  913.988,802.038 915.782,490.993 917.576,592.469 919.369,1185.26 921.163,1083.56 922.957,1132.72 924.75,702.073 926.544,981.959 928.338,907.641 930.131,1064.75 
  931.925,489.759 933.719,1093.87 935.512,1165.9 937.306,200.62 939.1,622.282 940.893,581.622 942.687,422.921 944.481,1155.29 946.274,645.746 948.068,864.509 
  949.862,1202.42 951.655,569.116 953.449,1055.01 955.243,869.26 957.036,482.164 958.83,474.064 960.624,1067.27 962.417,709.117 964.211,198.324 966.005,1075.31 
  967.798,631.18 969.592,1030.18 971.386,1390.15 973.179,1180.96 974.973,694.12 976.767,467.807 978.56,536.59 980.354,1023.34 982.148,926.053 983.941,1312.98 
  985.735,995.806 987.528,705.038 989.322,566.736 991.116,610.08 992.909,792.303 994.703,1250.89 996.497,232.556 998.29,957.35 1000.08,459.56 1001.88,617.964 
  1003.67,1299.82 1005.47,463.08 1007.26,454.22 1009.05,699.365 1010.85,561.029 1012.64,591.378 1014.43,556.635 1016.23,782.625 1018.02,1116.46 1019.81,1023.7 
  1021.61,824.176 1023.4,621.678 1025.2,960.056 1026.99,1353.77 1028.78,1065.58 1030.58,930.303 1032.37,1105.6 1034.16,761.956 1035.96,450.914 1037.75,452.064 
  1039.54,687.324 1041.34,214.674 1043.13,449.156 1044.93,1278.39 1046.72,1009.38 1048.51,621.798 1050.31,859.044 1052.1,1361.93 1053.89,586.609 1055.69,1051.85 
  1057.48,1122.14 1059.27,929.395 1061.07,753.544 1062.86,1106.52 1064.66,459.294 1066.45,582.097 1068.24,1088.36 1070.04,522.81 1071.83,470.173 1073.62,1038.03 
  1075.42,816.689 1077.21,580.545 1079.01,668.105 1080.8,946.125 1082.59,661.915 1084.39,393.135 1086.18,848.824 1087.97,1052.37 1089.77,1278.73 1091.56,578.197 
  1093.35,1039.1 1095.15,543.466 1096.94,1047.9 1098.74,389.998 1100.53,461.654 1102.32,1052.25 1104.12,1072.96 1105.91,1089.77 1107.7,571.672 1109.5,1025.05 
  1111.29,221.974 1113.08,902.556 1114.88,962.472 1116.67,811.682 1118.47,444.51 1120.26,451.423 1122.05,1060.91 1123.85,991.134 1125.64,537.48 1127.43,523.427 
  1129.23,1111.08 1131.02,843.205 1132.82,1086.68 1134.61,1061.12 1136.4,597.827 1138.2,834.387 1139.99,669.11 1141.78,1084.22 1143.58,988.171 1145.37,503.163 
  1147.16,470.318 1148.96,873.773 1150.75,704.743 1152.55,1054.82 1154.34,1273.11 1156.13,201.475 1157.93,503.4 1159.72,638.35 1161.51,1243.15 1163.31,620.909 
  1165.1,1076.24 1166.89,1068.47 1168.69,579.108 1170.48,866.1 1172.28,1014.83 1174.07,471.771 1175.86,844.467 1177.66,426.951 1179.45,1103.86 1181.24,471.429 
  1183.04,1090.69 1184.83,497.932 1186.62,464.83 1188.42,923.219 1190.21,803.47 1192.01,1270.19 1193.8,1259.8 1195.59,1148.76 1197.39,1087.27 1199.18,568.676 
  1200.97,1086.39 1202.77,200.142 1204.56,1003.42 1206.36,583.496 1208.15,641.988 1209.94,1279.45 1211.74,1078.41 1213.53,490.55 1215.32,1097.65 1217.12,835.725 
  1218.91,609.583 1220.7,1055.22 1222.5,1242.56 1224.29,933.273 1226.09,600.673 1227.88,892.064 1229.67,1019.45 1231.47,454.395 1233.26,1314.69 1235.05,969.332 
  1236.85,908.122 1238.64,1103.26 1240.43,485.589 1242.23,1079.08 1244.02,819.777 1245.82,671.498 1247.61,444.546 1249.4,1254.31 1251.2,594.915 1252.99,943.225 
  1254.78,531.394 1256.58,1132.39 1258.37,596.263 1260.17,1014.52 1261.96,1022.08 1263.75,640.106 1265.55,1093.2 1267.34,1245.47 1269.13,990.652 1270.93,896.254 
  1272.72,1120.82 1274.51,1137.71 1276.31,523.982 1278.1,608.871 1279.9,967.504 1281.69,580.933 1283.48,488.331 1285.28,1041.59 1287.07,534.652 1288.86,600.88 
  1290.66,649.4 1292.45,560.238 1294.24,897.874 1296.04,1272.33 1297.83,1080.3 1299.63,970.948 1301.42,869.703 1303.21,473.488 1305.01,1119.51 1306.8,620.983 
  1308.59,1080.11 1310.39,692.656 1312.18,514.071 1313.97,1007.66 1315.77,987.524 1317.56,919.891 1319.36,398.254 1321.15,954.284 1322.94,1292.14 1324.74,853.205 
  1326.53,221.263 1328.32,1162.67 1330.12,594.559 1331.91,508.056 1333.71,619.301 1335.5,629.913 1337.29,1033.88 1339.09,613.482 1340.88,1110.5 1342.67,601.973 
  1344.47,507.919 1346.26,1001.25 1348.05,392.01 1349.85,1252.61 1351.64,895.555 1353.44,217.546 1355.23,1195 1357.02,585.889 1358.82,463.163 1360.61,609.862 
  1362.4,662.1 1364.2,820 1365.99,643.192 1367.78,765.456 1369.58,575.194 1371.37,871.06 1373.17,984.16 1374.96,588.224 1376.75,1307.74 1378.55,1241.1 
  1380.34,1100.81 1382.13,1053.1 1383.93,562.289 1385.72,1203.03 1387.51,672.136 1389.31,503.079 1391.1,788.24 1392.9,586.094 1394.69,1123.71 1396.48,1304.48 
  1398.28,1001.07 1400.07,1264.21 1401.86,1124.71 1403.66,590.914 1405.45,815.399 1407.25,606.972 1409.04,194.717 1410.83,623.601 1412.63,1068.03 1414.42,1041.19 
  1416.21,492.293 1418.01,882.335 1419.8,566.181 1421.59,432.585 1423.39,983.832 1425.18,797.551 1426.98,1310.49 1428.77,1253.01 1430.56,601.677 1432.36,566.612 
  1434.15,1097.78 1435.94,617.743 1437.74,1053.2 1439.53,844.51 1441.32,1170.11 1443.12,1325.53 1444.91,1016.67 1446.71,875.307 1448.5,1168.74 1450.29,957.358 
  1452.09,819.762 1453.88,1261.68 1455.67,864.713 1457.47,608.62 1459.26,1083.18 1461.06,1098.47 1462.85,597.288 1464.64,739.567 1466.44,1197.65 1468.23,435.532 
  1470.02,996.536 1471.82,1356.84 1473.61,1112.81 1475.4,595.549 1477.2,607.457 1478.99,771.285 1480.79,1268.58 1482.58,834.182 1484.37,886.69 1486.17,1280.52 
  1487.96,847.061 1489.75,897.216 1491.55,1034.95 1493.34,621.36 1495.13,1102.48 1496.93,1129.15 1498.72,582.889 1500.52,426.074 1502.31,562.08 1504.1,1173.44 
  1505.9,396.924 1507.69,1320.22 1509.48,186.897 1511.28,826.349 1513.07,603.632 1514.86,536.812 1516.66,625.522 1518.45,1030.08 1520.25,1247.36 1522.04,796.21 
  1523.83,869.069 1525.63,986.925 1527.42,1343.36 1529.21,1120.83 1531.01,1247.45 1532.8,530.39 1534.6,614.892 1536.39,512.689 1538.18,1117.95 1539.98,1014.62 
  1541.77,586.798 1543.56,823.618 1545.36,183.01 1547.15,944.978 1548.94,446.428 1550.74,609.013 1552.53,618.913 1554.33,896.663 1556.12,1100.59 1557.91,1348.89 
  1559.71,524.806 1561.5,672.607 1563.29,772.46 1565.09,925.667 1566.88,788.146 1568.67,1131.69 1570.47,244.493 1572.26,574.286 1574.06,373.597 1575.85,1197.25 
  1577.64,1396.9 1579.44,672.255 1581.23,1084.94 1583.02,603.393 1584.82,1010.61 1586.61,1213.56 1588.41,810.367 1590.2,952.778 1591.99,602.28 1593.79,795.526 
  1595.58,563.871 1597.37,564.684 1599.17,466.243 1600.96,1116.81 1602.75,366.191 1604.55,978.538 1606.34,489.237 1608.14,570.429 1609.93,1162.51 1611.72,627.92 
  1613.52,545.855 1615.31,595.152 1617.1,1206 1618.9,1124.92 1620.69,219.788 1622.48,774.552 1624.28,446.75 1626.07,1120.49 1627.87,670.987 1629.66,478.471 
  1631.45,709.853 1633.25,568.199 1635.04,1016.16 1636.83,945.402 1638.63,565.487 1640.42,922.337 1642.21,1232.09 1644.01,1102.99 1645.8,731.372 1647.6,341.095 
  1649.39,1194.4 1651.18,1175.61 1652.98,928.646 1654.77,918.949 1656.56,563.228 1658.36,1107.35 1660.15,1194.95 1661.95,653.65 1663.74,603.971 1665.53,1419.23 
  1667.33,766.069 1669.12,763.355 1670.91,938.746 1672.71,1124.84 1674.5,339.062 1676.29,195.535 1678.09,672.963 1679.88,500.442 1681.68,1184.2 1683.47,479.646 
  1685.26,1125.96 1687.06,648.222 1688.85,763.552 1690.64,576.095 1692.44,617.527 1694.23,928.281 1696.02,1447.87 1697.82,1183.52 1699.61,780.721 1701.41,928.536 
  1703.2,742.006 1704.99,1116.69 1706.79,692.091 1708.58,526.177 1710.37,961.099 1712.17,492.895 1713.96,734.12 1715.76,486.945 1717.55,1176.55 1719.34,1237.54 
  1721.14,1167.37 1722.93,633.304 1724.72,908.49 1726.52,1210.94 1728.31,921.449 1730.1,1057.85 1731.9,1232.68 1733.69,375.647 1735.49,596.661 1737.28,1149.69 
  1739.07,506.813 1740.87,792.155 1742.66,445.01 1744.45,648.553 1746.25,1139.78 1748.04,1209.98 1749.83,664.727 1751.63,1204.49 1753.42,211.679 1755.22,553.147 
  1757.01,433.789 1758.8,537.251 1760.6,367.848 1762.39,1227.91 1764.18,574.001 1765.98,1241.39 1767.77,833.679 1769.56,1113.58 1771.36,636.658 1773.15,1374.57 
  1774.95,842.549 1776.74,525.853 1778.53,661.469 1780.33,590.274 1782.12,692.959 1783.91,757.344 1785.71,342.6 1787.5,1207.26 1789.3,531.687 1791.09,828.877 
  1792.88,426.001 1794.68,1262.48 1796.47,1117.89 1798.26,1214.09 1800.06,1340.53 1801.85,692.434 1803.64,1194.23 1805.44,521.629 1807.23,778.263 1809.03,855.369 
  1810.82,672.025 1812.61,684.772 1814.41,542.388 1816.2,738.222 1817.99,1292.81 1819.79,911.813 1821.58,375.022 1823.37,1220.54 1825.17,723.615 1826.96,162.047 
  1828.76,806.553 1830.55,703.106 1832.34,701.12 1834.14,884.122 1835.93,633.412 1837.72,1270.32 1839.52,1168.59 1841.31,705.574 1843.1,1290.26 1844.9,826.768 
  1846.69,415.682 1848.49,801.715 1850.28,907.592 1852.07,1162.2 1853.87,1157.86 1855.66,590.057 1857.45,805.513 1859.25,568.582 1861.04,696.964 1862.84,1237.51 
  1864.63,905.487 1866.42,1305.25 1868.22,1250.94 1870.01,699.33 1871.8,1136.85 1873.6,1232.87 1875.39,795.97 1877.18,1167.72 1878.98,431.389 1880.77,561.169 
  1882.57,720.117 1884.36,981.138 1886.15,539.155 1887.95,421.714 1889.74,799.088 1891.53,1182.4 1893.33,184.56 1895.12,1322.48 1896.91,1228.64 1898.71,646.154 
  1900.5,881.116 1902.3,1146.84 1904.09,638.852 1905.88,833.258 1907.68,1176.63 1909.47,506.718 1911.26,790.537 1913.06,1182.46 1914.85,1097.65 1916.65,958.058 
  1918.44,1242.86 1920.23,767.422 1922.03,1134.18 1923.82,479.506 1925.61,1226.34 1927.41,630.221 1929.2,996.824 1930.99,409.189 1932.79,1184.33 1934.58,1195.12 
  1936.38,1329.5 1938.17,676.662 1939.96,1192.19 1941.76,838.806 1943.55,923.799 1945.34,1171.44 1947.14,481.362 1948.93,973.144 1950.72,509.728 1952.52,598.564 
  1954.31,594.924 1956.11,1086.64 1957.9,1266.73 1959.69,1308.47 1961.49,796.099 1963.28,1214.26 1965.07,619.468 1966.87,646.429 1968.66,1107.97 1970.45,665.414 
  1972.25,676.316 1974.04,862.619 1975.84,667.99 1977.63,1244.25 1979.42,879.89 1981.22,1169.11 1983.01,352.968 1984.8,679.744 1986.6,1200.84 1988.39,635.872 
  1990.19,646.313 1991.98,727.135 1993.77,381.603 1995.57,889.958 1997.36,1096.85 1999.15,858.008 2000.95,285.445 2002.74,836.693 2004.53,620.804 2006.33,632.017 
  2008.12,557.833 2009.92,498.338 2011.71,682.045 2013.5,377.709 2015.3,913.908 2017.09,523.495 2018.88,720.57 2020.68,800.888 2022.47,654.362 2024.26,924.985 
  2026.06,653.322 2027.85,1138.37 2029.65,525.968 2031.44,769.408 2033.23,691.088 2035.03,666.603 2036.82,296.173 2038.61,870.524 2040.41,466.94 2042.2,649.718 
  2044,663.028 2045.79,845.472 2047.58,681.809 2049.38,807.552 2051.17,1150.73 2052.96,390.487 2054.76,790.408 2056.55,537.905 2058.34,881.994 2060.14,886.412 
  2061.93,324.075 2063.73,644.353 2065.52,634.007 2067.31,659.326 2069.11,822.961 2070.9,784.175 2072.69,904.727 2074.49,669.564 2076.28,783.129 2078.07,321.356 
  2079.87,781.118 2081.66,667.625 2083.46,674.235 2085.25,658.521 2087.04,671.25 2088.84,581.91 2090.63,378.111 2092.42,768.227 2094.22,445.769 2096.01,791.723 
  2097.8,874.642 2099.6,450.27 2101.39,811.235 2103.19,700.551 2104.98,329.82 2106.77,685.748 2108.57,511.269 2110.36,827.592 2112.15,768.506 2113.95,669.299 
  2115.74,720.91 2117.54,624.643 2119.33,1190.15 2121.12,899.084 2122.92,636.563 2124.71,703.726 2126.5,639.166 2128.3,667.103 2130.09,416.442 2131.88,499.878 
  2133.68,706.089 2135.47,742.608 2137.27,721.841 2139.06,799.817 2140.85,857.255 2142.65,330.643 2144.44,680.514 2146.23,467.698 2148.03,654.098 2149.82,747.455 
  2151.61,703.543 2153.41,317.926 2155.2,460.945 2157,455.158 2158.79,398.086 2160.58,641.577 2162.38,725.912 2164.17,551.886 2165.96,297.647 2167.76,677.106 
  2169.55,443.485 2171.34,439.438 2173.14,673.183 2174.93,687.397 2176.73,448.158 2178.52,579.053 2180.31,836.813 2182.11,685.318 2183.9,694.907 2185.69,668.35 
  2187.49,805.992 2189.28,632.445 2191.08,711.428 2192.87,740.952 2194.66,709.4 2196.46,685.67 2198.25,855.527 2200.04,623.732 2201.84,823.436 2203.63,679.431 
  2205.42,609.973 2207.22,757.834 2209.01,791.544 2210.81,482.818 2212.6,393.98 2214.39,701.948 2216.19,495.361 2217.98,253.054 2219.77,723.505 2221.57,647.585 
  2223.36,378.685 2225.15,729.563 2226.95,299.301 2228.74,723.602 2230.54,415.487 2232.33,656.047 2234.12,321.432 2235.92,408.293 2237.71,533.386 2239.5,479.908 
  2241.3,331.601 2243.09,380.169 2244.89,493.897 2246.68,522.667 2248.47,283.572 2250.27,700.065 2252.06,455.986 2253.85,622.472 2255.65,303.124 2257.44,712.56 
  2259.23,644.45 2261.03,389.286 2262.82,317.769 2264.62,459.712 2266.41,699.477 2268.2,300.053 2270,464.031 2271.79,318.168 2273.58,426.413 2275.38,441.09 
  2277.17,404.203 2278.96,641.441 2280.76,465.127 2282.55,609.637 2284.35,333.327 2286.14,412.639 2287.93,447.719 2289.73,624.448 2291.52,412.639 
  "/>
<path clip-path="url(#clip650)" d="
M1895.99 327.952 L2280.76 327.952 L2280.76 206.992 L1895.99 206.992  Z
  " fill="#ffffff" fill-rule="evenodd" fill-opacity="1"/>
<polyline clip-path="url(#clip650)" style="stroke:#000000; stroke-width:4; stroke-opacity:1; fill:none" points="
  1895.99,327.952 2280.76,327.952 2280.76,206.992 1895.99,206.992 1895.99,327.952 
  "/>
<polyline clip-path="url(#clip650)" style="stroke:#009af9; stroke-width:4; stroke-opacity:1; fill:none" points="
  1919.99,267.472 2063.99,267.472 
  "/>
<path clip-path="url(#clip650)" d="M 0 0 M2087.99 248.734 L2097.8 248.734 L2097.8 252.044 L2092.25 252.044 L2092.25 287.692 L2097.8 287.692 L2097.8 291.002 L2087.99 291.002 L2087.99 248.734 Z" fill="#000000" fill-rule="evenodd" fill-opacity="1" /><path clip-path="url(#clip650)" d="M 0 0 M2106.3 250.192 L2106.3 263.039 L2102.36 263.039 L2102.36 250.192 L2106.3 250.192 M2115.05 250.192 L2115.05 263.039 L2111.11 263.039 L2111.11 250.192 L2115.05 250.192 Z" fill="#000000" fill-rule="evenodd" fill-opacity="1" /><path clip-path="url(#clip650)" d="M 0 0 M2119.7 250.192 L2141.55 250.192 L2141.55 254.127 L2124.38 254.127 L2124.38 264.359 L2140.84 264.359 L2140.84 268.294 L2124.38 268.294 L2124.38 280.817 L2141.97 280.817 L2141.97 284.752 L2119.7 284.752 L2119.7 250.192 Z" fill="#000000" fill-rule="evenodd" fill-opacity="1" /><path clip-path="url(#clip650)" d="M 0 0 M2146.62 250.192 L2151.3 250.192 L2151.3 280.817 L2168.13 280.817 L2168.13 284.752 L2146.62 284.752 L2146.62 250.192 Z" fill="#000000" fill-rule="evenodd" fill-opacity="1" /><path clip-path="url(#clip650)" d="M 0 0 M2185.12 253.363 Q2180.02 253.363 2177.02 257.16 Q2174.03 260.956 2174.03 267.507 Q2174.03 274.035 2177.02 277.831 Q2180.02 281.627 2185.12 281.627 Q2190.21 281.627 2193.17 277.831 Q2196.16 274.035 2196.16 267.507 Q2196.16 260.956 2193.17 257.16 Q2190.21 253.363 2185.12 253.363 M2185.12 249.567 Q2192.39 249.567 2196.74 254.451 Q2201.09 259.312 2201.09 267.507 Q2201.09 275.678 2196.74 280.562 Q2192.39 285.423 2185.12 285.423 Q2177.83 285.423 2173.45 280.562 Q2169.1 275.701 2169.1 267.507 Q2169.1 259.312 2173.45 254.451 Q2177.83 249.567 2185.12 249.567 Z" fill="#000000" fill-rule="evenodd" fill-opacity="1" /><path clip-path="url(#clip650)" d="M 0 0 M2209.58 250.192 L2209.58 263.039 L2205.65 263.039 L2205.65 250.192 L2209.58 250.192 M2218.33 250.192 L2218.33 263.039 L2214.4 263.039 L2214.4 250.192 L2218.33 250.192 Z" fill="#000000" fill-rule="evenodd" fill-opacity="1" /><path clip-path="url(#clip650)" d="M 0 0 M2232.76 248.734 L2232.76 291.002 L2222.94 291.002 L2222.94 287.692 L2228.47 287.692 L2228.47 252.044 L2222.94 252.044 L2222.94 248.734 L2232.76 248.734 Z" fill="#000000" fill-rule="evenodd" fill-opacity="1" /></svg>
