<?xml version="1.0" encoding="utf-8"?>
<svg xmlns="http://www.w3.org/2000/svg" xmlns:xlink="http://www.w3.org/1999/xlink" width="600" height="400" viewBox="0 0 2400 1600">
<defs>
  <clipPath id="clip610">
    <rect x="0" y="0" width="2400" height="1600"/>
  </clipPath>
</defs>
<path clip-path="url(#clip610)" d="
M0 1600 L2400 1600 L2400 8.88178e-14 L0 8.88178e-14  Z
  " fill="#ffffff" fill-rule="evenodd" fill-opacity="1"/>
<defs>
  <clipPath id="clip611">
    <rect x="480" y="0" width="1681" height="1600"/>
  </clipPath>
</defs>
<path clip-path="url(#clip610)" d="
M188.612 1486.45 L2352.76 1486.45 L2352.76 123.472 L188.612 123.472  Z
  " fill="#ffffff" fill-rule="evenodd" fill-opacity="1"/>
<defs>
  <clipPath id="clip612">
    <rect x="188" y="123" width="2165" height="1364"/>
  </clipPath>
</defs>
<polyline clip-path="url(#clip612)" style="stroke:#000000; stroke-width:2; stroke-opacity:0.1; fill:none" points="
  245.834,1486.45 245.834,123.472 
  "/>
<polyline clip-path="url(#clip612)" style="stroke:#000000; stroke-width:2; stroke-opacity:0.1; fill:none" points="
  648.526,1486.45 648.526,123.472 
  "/>
<polyline clip-path="url(#clip612)" style="stroke:#000000; stroke-width:2; stroke-opacity:0.1; fill:none" points="
  1051.22,1486.45 1051.22,123.472 
  "/>
<polyline clip-path="url(#clip612)" style="stroke:#000000; stroke-width:2; stroke-opacity:0.1; fill:none" points="
  1453.91,1486.45 1453.91,123.472 
  "/>
<polyline clip-path="url(#clip612)" style="stroke:#000000; stroke-width:2; stroke-opacity:0.1; fill:none" points="
  1856.6,1486.45 1856.6,123.472 
  "/>
<polyline clip-path="url(#clip612)" style="stroke:#000000; stroke-width:2; stroke-opacity:0.1; fill:none" points="
  2259.29,1486.45 2259.29,123.472 
  "/>
<polyline clip-path="url(#clip612)" style="stroke:#000000; stroke-width:2; stroke-opacity:0.1; fill:none" points="
  188.612,1449.88 2352.76,1449.88 
  "/>
<polyline clip-path="url(#clip612)" style="stroke:#000000; stroke-width:2; stroke-opacity:0.1; fill:none" points="
  188.612,1093.35 2352.76,1093.35 
  "/>
<polyline clip-path="url(#clip612)" style="stroke:#000000; stroke-width:2; stroke-opacity:0.1; fill:none" points="
  188.612,736.82 2352.76,736.82 
  "/>
<polyline clip-path="url(#clip612)" style="stroke:#000000; stroke-width:2; stroke-opacity:0.1; fill:none" points="
  188.612,380.287 2352.76,380.287 
  "/>
<polyline clip-path="url(#clip610)" style="stroke:#000000; stroke-width:4; stroke-opacity:1; fill:none" points="
  188.612,1486.45 2352.76,1486.45 
  "/>
<polyline clip-path="url(#clip610)" style="stroke:#000000; stroke-width:4; stroke-opacity:1; fill:none" points="
  188.612,1486.45 188.612,123.472 
  "/>
<polyline clip-path="url(#clip610)" style="stroke:#000000; stroke-width:4; stroke-opacity:1; fill:none" points="
  245.834,1486.45 245.834,1470.09 
  "/>
<polyline clip-path="url(#clip610)" style="stroke:#000000; stroke-width:4; stroke-opacity:1; fill:none" points="
  648.526,1486.45 648.526,1470.09 
  "/>
<polyline clip-path="url(#clip610)" style="stroke:#000000; stroke-width:4; stroke-opacity:1; fill:none" points="
  1051.22,1486.45 1051.22,1470.09 
  "/>
<polyline clip-path="url(#clip610)" style="stroke:#000000; stroke-width:4; stroke-opacity:1; fill:none" points="
  1453.91,1486.45 1453.91,1470.09 
  "/>
<polyline clip-path="url(#clip610)" style="stroke:#000000; stroke-width:4; stroke-opacity:1; fill:none" points="
  1856.6,1486.45 1856.6,1470.09 
  "/>
<polyline clip-path="url(#clip610)" style="stroke:#000000; stroke-width:4; stroke-opacity:1; fill:none" points="
  2259.29,1486.45 2259.29,1470.09 
  "/>
<polyline clip-path="url(#clip610)" style="stroke:#000000; stroke-width:4; stroke-opacity:1; fill:none" points="
  188.612,1449.88 214.582,1449.88 
  "/>
<polyline clip-path="url(#clip610)" style="stroke:#000000; stroke-width:4; stroke-opacity:1; fill:none" points="
  188.612,1093.35 214.582,1093.35 
  "/>
<polyline clip-path="url(#clip610)" style="stroke:#000000; stroke-width:4; stroke-opacity:1; fill:none" points="
  188.612,736.82 214.582,736.82 
  "/>
<polyline clip-path="url(#clip610)" style="stroke:#000000; stroke-width:4; stroke-opacity:1; fill:none" points="
  188.612,380.287 214.582,380.287 
  "/>
<path clip-path="url(#clip610)" d="M 0 0 M245.834 1508.44 Q242.223 1508.44 240.395 1512 Q238.589 1515.55 238.589 1522.67 Q238.589 1529.78 240.395 1533.35 Q242.223 1536.89 245.834 1536.89 Q249.469 1536.89 251.274 1533.35 Q253.103 1529.78 253.103 1522.67 Q253.103 1515.55 251.274 1512 Q249.469 1508.44 245.834 1508.44 M245.834 1504.73 Q251.645 1504.73 254.7 1509.34 Q257.779 1513.92 257.779 1522.67 Q257.779 1531.4 254.7 1536.01 Q251.645 1540.59 245.834 1540.59 Q240.024 1540.59 236.946 1536.01 Q233.89 1531.4 233.89 1522.67 Q233.89 1513.92 236.946 1509.34 Q240.024 1504.73 245.834 1504.73 Z" fill="#000000" fill-rule="evenodd" fill-opacity="1" /><path clip-path="url(#clip610)" d="M 0 0 M611.894 1535.98 L619.533 1535.98 L619.533 1509.62 L611.223 1511.29 L611.223 1507.03 L619.487 1505.36 L624.162 1505.36 L624.162 1535.98 L631.801 1535.98 L631.801 1539.92 L611.894 1539.92 L611.894 1535.98 Z" fill="#000000" fill-rule="evenodd" fill-opacity="1" /><path clip-path="url(#clip610)" d="M 0 0 M646.871 1508.44 Q643.26 1508.44 641.431 1512 Q639.625 1515.55 639.625 1522.67 Q639.625 1529.78 641.431 1533.35 Q643.26 1536.89 646.871 1536.89 Q650.505 1536.89 652.31 1533.35 Q654.139 1529.78 654.139 1522.67 Q654.139 1515.55 652.31 1512 Q650.505 1508.44 646.871 1508.44 M646.871 1504.73 Q652.681 1504.73 655.736 1509.34 Q658.815 1513.92 658.815 1522.67 Q658.815 1531.4 655.736 1536.01 Q652.681 1540.59 646.871 1540.59 Q641.061 1540.59 637.982 1536.01 Q634.926 1531.4 634.926 1522.67 Q634.926 1513.92 637.982 1509.34 Q641.061 1504.73 646.871 1504.73 Z" fill="#000000" fill-rule="evenodd" fill-opacity="1" /><path clip-path="url(#clip610)" d="M 0 0 M673.884 1508.44 Q670.273 1508.44 668.445 1512 Q666.639 1515.55 666.639 1522.67 Q666.639 1529.78 668.445 1533.35 Q670.273 1536.89 673.884 1536.89 Q677.519 1536.89 679.324 1533.35 Q681.153 1529.78 681.153 1522.67 Q681.153 1515.55 679.324 1512 Q677.519 1508.44 673.884 1508.44 M673.884 1504.73 Q679.695 1504.73 682.75 1509.34 Q685.829 1513.92 685.829 1522.67 Q685.829 1531.4 682.75 1536.01 Q679.695 1540.59 673.884 1540.59 Q668.074 1540.59 664.996 1536.01 Q661.94 1531.4 661.94 1522.67 Q661.94 1513.92 664.996 1509.34 Q668.074 1504.73 673.884 1504.73 Z" fill="#000000" fill-rule="evenodd" fill-opacity="1" /><path clip-path="url(#clip610)" d="M 0 0 M1018.86 1535.98 L1035.18 1535.98 L1035.18 1539.92 L1013.23 1539.92 L1013.23 1535.98 Q1015.89 1533.23 1020.48 1528.6 Q1025.08 1523.95 1026.26 1522.61 Q1028.51 1520.08 1029.39 1518.35 Q1030.29 1516.59 1030.29 1514.9 Q1030.29 1512.14 1028.35 1510.41 Q1026.43 1508.67 1023.32 1508.67 Q1021.12 1508.67 1018.67 1509.43 Q1016.24 1510.2 1013.46 1511.75 L1013.46 1507.03 Q1016.29 1505.89 1018.74 1505.31 Q1021.19 1504.73 1023.23 1504.73 Q1028.6 1504.73 1031.8 1507.42 Q1034.99 1510.11 1034.99 1514.6 Q1034.99 1516.73 1034.18 1518.65 Q1033.39 1520.54 1031.29 1523.14 Q1030.71 1523.81 1027.61 1527.03 Q1024.5 1530.22 1018.86 1535.98 Z" fill="#000000" fill-rule="evenodd" fill-opacity="1" /><path clip-path="url(#clip610)" d="M 0 0 M1050.24 1508.44 Q1046.63 1508.44 1044.81 1512 Q1043 1515.55 1043 1522.67 Q1043 1529.78 1044.81 1533.35 Q1046.63 1536.89 1050.24 1536.89 Q1053.88 1536.89 1055.68 1533.35 Q1057.51 1529.78 1057.51 1522.67 Q1057.51 1515.55 1055.68 1512 Q1053.88 1508.44 1050.24 1508.44 M1050.24 1504.73 Q1056.06 1504.73 1059.11 1509.34 Q1062.19 1513.92 1062.19 1522.67 Q1062.19 1531.4 1059.11 1536.01 Q1056.06 1540.59 1050.24 1540.59 Q1044.43 1540.59 1041.36 1536.01 Q1038.3 1531.4 1038.3 1522.67 Q1038.3 1513.92 1041.36 1509.34 Q1044.43 1504.73 1050.24 1504.73 Z" fill="#000000" fill-rule="evenodd" fill-opacity="1" /><path clip-path="url(#clip610)" d="M 0 0 M1077.26 1508.44 Q1073.65 1508.44 1071.82 1512 Q1070.01 1515.55 1070.01 1522.67 Q1070.01 1529.78 1071.82 1533.35 Q1073.65 1536.89 1077.26 1536.89 Q1080.89 1536.89 1082.7 1533.35 Q1084.53 1529.78 1084.53 1522.67 Q1084.53 1515.55 1082.7 1512 Q1080.89 1508.44 1077.26 1508.44 M1077.26 1504.73 Q1083.07 1504.73 1086.12 1509.34 Q1089.2 1513.92 1089.2 1522.67 Q1089.2 1531.4 1086.12 1536.01 Q1083.07 1540.59 1077.26 1540.59 Q1071.45 1540.59 1068.37 1536.01 Q1065.31 1531.4 1065.31 1522.67 Q1065.31 1513.92 1068.37 1509.34 Q1071.45 1504.73 1077.26 1504.73 Z" fill="#000000" fill-rule="evenodd" fill-opacity="1" /><path clip-path="url(#clip610)" d="M 0 0 M1431.14 1521.29 Q1434.5 1522 1436.37 1524.27 Q1438.27 1526.54 1438.27 1529.87 Q1438.27 1534.99 1434.75 1537.79 Q1431.24 1540.59 1424.75 1540.59 Q1422.58 1540.59 1420.26 1540.15 Q1417.97 1539.73 1415.52 1538.88 L1415.52 1534.36 Q1417.46 1535.5 1419.78 1536.08 Q1422.09 1536.66 1424.61 1536.66 Q1429.01 1536.66 1431.3 1534.92 Q1433.62 1533.18 1433.62 1529.87 Q1433.62 1526.82 1431.47 1525.11 Q1429.34 1523.37 1425.52 1523.37 L1421.49 1523.37 L1421.49 1519.53 L1425.7 1519.53 Q1429.15 1519.53 1430.98 1518.16 Q1432.81 1516.77 1432.81 1514.18 Q1432.81 1511.52 1430.91 1510.11 Q1429.04 1508.67 1425.52 1508.67 Q1423.6 1508.67 1421.4 1509.09 Q1419.2 1509.5 1416.56 1510.38 L1416.56 1506.22 Q1419.22 1505.48 1421.54 1505.11 Q1423.87 1504.73 1425.93 1504.73 Q1431.26 1504.73 1434.36 1507.17 Q1437.46 1509.57 1437.46 1513.69 Q1437.46 1516.56 1435.82 1518.55 Q1434.17 1520.52 1431.14 1521.29 Z" fill="#000000" fill-rule="evenodd" fill-opacity="1" /><path clip-path="url(#clip610)" d="M 0 0 M1453.34 1508.44 Q1449.73 1508.44 1447.9 1512 Q1446.1 1515.55 1446.1 1522.67 Q1446.1 1529.78 1447.9 1533.35 Q1449.73 1536.89 1453.34 1536.89 Q1456.98 1536.89 1458.78 1533.35 Q1460.61 1529.78 1460.61 1522.67 Q1460.61 1515.55 1458.78 1512 Q1456.98 1508.44 1453.34 1508.44 M1453.34 1504.73 Q1459.15 1504.73 1462.21 1509.34 Q1465.29 1513.92 1465.29 1522.67 Q1465.29 1531.4 1462.21 1536.01 Q1459.15 1540.59 1453.34 1540.59 Q1447.53 1540.59 1444.45 1536.01 Q1441.4 1531.4 1441.4 1522.67 Q1441.4 1513.92 1444.45 1509.34 Q1447.53 1504.73 1453.34 1504.73 Z" fill="#000000" fill-rule="evenodd" fill-opacity="1" /><path clip-path="url(#clip610)" d="M 0 0 M1480.36 1508.44 Q1476.74 1508.44 1474.92 1512 Q1473.11 1515.55 1473.11 1522.67 Q1473.11 1529.78 1474.92 1533.35 Q1476.74 1536.89 1480.36 1536.89 Q1483.99 1536.89 1485.79 1533.35 Q1487.62 1529.78 1487.62 1522.67 Q1487.62 1515.55 1485.79 1512 Q1483.99 1508.44 1480.36 1508.44 M1480.36 1504.73 Q1486.17 1504.73 1489.22 1509.34 Q1492.3 1513.92 1492.3 1522.67 Q1492.3 1531.4 1489.22 1536.01 Q1486.17 1540.59 1480.36 1540.59 Q1474.54 1540.59 1471.47 1536.01 Q1468.41 1531.4 1468.41 1522.67 Q1468.41 1513.92 1471.47 1509.34 Q1474.54 1504.73 1480.36 1504.73 Z" fill="#000000" fill-rule="evenodd" fill-opacity="1" /><path clip-path="url(#clip610)" d="M 0 0 M1832.6 1509.43 L1820.79 1527.88 L1832.6 1527.88 L1832.6 1509.43 M1831.37 1505.36 L1837.25 1505.36 L1837.25 1527.88 L1842.18 1527.88 L1842.18 1531.77 L1837.25 1531.77 L1837.25 1539.92 L1832.6 1539.92 L1832.6 1531.77 L1816.99 1531.77 L1816.99 1527.26 L1831.37 1505.36 Z" fill="#000000" fill-rule="evenodd" fill-opacity="1" /><path clip-path="url(#clip610)" d="M 0 0 M1857.25 1508.44 Q1853.64 1508.44 1851.81 1512 Q1850 1515.55 1850 1522.67 Q1850 1529.78 1851.81 1533.35 Q1853.64 1536.89 1857.25 1536.89 Q1860.88 1536.89 1862.69 1533.35 Q1864.52 1529.78 1864.52 1522.67 Q1864.52 1515.55 1862.69 1512 Q1860.88 1508.44 1857.25 1508.44 M1857.25 1504.73 Q1863.06 1504.73 1866.11 1509.34 Q1869.19 1513.92 1869.19 1522.67 Q1869.19 1531.4 1866.11 1536.01 Q1863.06 1540.59 1857.25 1540.59 Q1851.44 1540.59 1848.36 1536.01 Q1845.3 1531.4 1845.3 1522.67 Q1845.3 1513.92 1848.36 1509.34 Q1851.44 1504.73 1857.25 1504.73 Z" fill="#000000" fill-rule="evenodd" fill-opacity="1" /><path clip-path="url(#clip610)" d="M 0 0 M1884.26 1508.44 Q1880.65 1508.44 1878.82 1512 Q1877.02 1515.55 1877.02 1522.67 Q1877.02 1529.78 1878.82 1533.35 Q1880.65 1536.89 1884.26 1536.89 Q1887.9 1536.89 1889.7 1533.35 Q1891.53 1529.78 1891.53 1522.67 Q1891.53 1515.55 1889.7 1512 Q1887.9 1508.44 1884.26 1508.44 M1884.26 1504.73 Q1890.07 1504.73 1893.13 1509.34 Q1896.21 1513.92 1896.21 1522.67 Q1896.21 1531.4 1893.13 1536.01 Q1890.07 1540.59 1884.26 1540.59 Q1878.45 1540.59 1875.37 1536.01 Q1872.32 1531.4 1872.32 1522.67 Q1872.32 1513.92 1875.37 1509.34 Q1878.45 1504.73 1884.26 1504.73 Z" fill="#000000" fill-rule="evenodd" fill-opacity="1" /><path clip-path="url(#clip610)" d="M 0 0 M2222.56 1505.36 L2240.91 1505.36 L2240.91 1509.3 L2226.84 1509.3 L2226.84 1517.77 Q2227.86 1517.42 2228.87 1517.26 Q2229.89 1517.07 2230.91 1517.07 Q2236.7 1517.07 2240.08 1520.24 Q2243.46 1523.42 2243.46 1528.83 Q2243.46 1534.41 2239.99 1537.51 Q2236.51 1540.59 2230.19 1540.59 Q2228.02 1540.59 2225.75 1540.22 Q2223.5 1539.85 2221.1 1539.11 L2221.1 1534.41 Q2223.18 1535.54 2225.4 1536.1 Q2227.62 1536.66 2230.1 1536.66 Q2234.11 1536.66 2236.44 1534.55 Q2238.78 1532.44 2238.78 1528.83 Q2238.78 1525.22 2236.44 1523.11 Q2234.11 1521.01 2230.1 1521.01 Q2228.23 1521.01 2226.35 1521.42 Q2224.5 1521.84 2222.56 1522.72 L2222.56 1505.36 Z" fill="#000000" fill-rule="evenodd" fill-opacity="1" /><path clip-path="url(#clip610)" d="M 0 0 M2258.53 1508.44 Q2254.92 1508.44 2253.09 1512 Q2251.28 1515.55 2251.28 1522.67 Q2251.28 1529.78 2253.09 1533.35 Q2254.92 1536.89 2258.53 1536.89 Q2262.16 1536.89 2263.97 1533.35 Q2265.8 1529.78 2265.8 1522.67 Q2265.8 1515.55 2263.97 1512 Q2262.16 1508.44 2258.53 1508.44 M2258.53 1504.73 Q2264.34 1504.73 2267.39 1509.34 Q2270.47 1513.92 2270.47 1522.67 Q2270.47 1531.4 2267.39 1536.01 Q2264.34 1540.59 2258.53 1540.59 Q2252.72 1540.59 2249.64 1536.01 Q2246.58 1531.4 2246.58 1522.67 Q2246.58 1513.92 2249.64 1509.34 Q2252.72 1504.73 2258.53 1504.73 Z" fill="#000000" fill-rule="evenodd" fill-opacity="1" /><path clip-path="url(#clip610)" d="M 0 0 M2285.54 1508.44 Q2281.93 1508.44 2280.1 1512 Q2278.3 1515.55 2278.3 1522.67 Q2278.3 1529.78 2280.1 1533.35 Q2281.93 1536.89 2285.54 1536.89 Q2289.18 1536.89 2290.98 1533.35 Q2292.81 1529.78 2292.81 1522.67 Q2292.81 1515.55 2290.98 1512 Q2289.18 1508.44 2285.54 1508.44 M2285.54 1504.73 Q2291.35 1504.73 2294.41 1509.34 Q2297.49 1513.92 2297.49 1522.67 Q2297.49 1531.4 2294.41 1536.01 Q2291.35 1540.59 2285.54 1540.59 Q2279.73 1540.59 2276.65 1536.01 Q2273.6 1531.4 2273.6 1522.67 Q2273.6 1513.92 2276.65 1509.34 Q2279.73 1504.73 2285.54 1504.73 Z" fill="#000000" fill-rule="evenodd" fill-opacity="1" /><path clip-path="url(#clip610)" d="M 0 0 M152.668 1435.68 Q149.056 1435.68 147.228 1439.25 Q145.422 1442.79 145.422 1449.92 Q145.422 1457.03 147.228 1460.59 Q149.056 1464.13 152.668 1464.13 Q156.302 1464.13 158.107 1460.59 Q159.936 1457.03 159.936 1449.92 Q159.936 1442.79 158.107 1439.25 Q156.302 1435.68 152.668 1435.68 M152.668 1431.98 Q158.478 1431.98 161.533 1436.59 Q164.612 1441.17 164.612 1449.92 Q164.612 1458.65 161.533 1463.25 Q158.478 1467.84 152.668 1467.84 Q146.857 1467.84 143.779 1463.25 Q140.723 1458.65 140.723 1449.92 Q140.723 1441.17 143.779 1436.59 Q146.857 1431.98 152.668 1431.98 Z" fill="#000000" fill-rule="evenodd" fill-opacity="1" /><path clip-path="url(#clip610)" d="M 0 0 M89.6818 1076.07 L108.038 1076.07 L108.038 1080.01 L93.9642 1080.01 L93.9642 1088.48 Q94.9827 1088.13 96.0012 1087.97 Q97.0197 1087.78 98.0382 1087.78 Q103.825 1087.78 107.205 1090.96 Q110.584 1094.13 110.584 1099.54 Q110.584 1105.12 107.112 1108.22 Q103.64 1111.3 97.3206 1111.3 Q95.1447 1111.3 92.8762 1110.93 Q90.6309 1110.56 88.2235 1109.82 L88.2235 1105.12 Q90.3068 1106.26 92.529 1106.81 Q94.7512 1107.37 97.2281 1107.37 Q101.233 1107.37 103.571 1105.26 Q105.909 1103.15 105.909 1099.54 Q105.909 1095.93 103.571 1093.83 Q101.233 1091.72 97.2281 1091.72 Q95.3531 1091.72 93.4781 1092.14 Q91.6262 1092.55 89.6818 1093.43 L89.6818 1076.07 Z" fill="#000000" fill-rule="evenodd" fill-opacity="1" /><path clip-path="url(#clip610)" d="M 0 0 M125.654 1079.15 Q122.043 1079.15 120.214 1082.72 Q118.408 1086.26 118.408 1093.39 Q118.408 1100.49 120.214 1104.06 Q122.043 1107.6 125.654 1107.6 Q129.288 1107.6 131.094 1104.06 Q132.922 1100.49 132.922 1093.39 Q132.922 1086.26 131.094 1082.72 Q129.288 1079.15 125.654 1079.15 M125.654 1075.45 Q131.464 1075.45 134.52 1080.05 Q137.598 1084.64 137.598 1093.39 Q137.598 1102.11 134.52 1106.72 Q131.464 1111.3 125.654 1111.3 Q119.844 1111.3 116.765 1106.72 Q113.709 1102.11 113.709 1093.39 Q113.709 1084.64 116.765 1080.05 Q119.844 1075.45 125.654 1075.45 Z" fill="#000000" fill-rule="evenodd" fill-opacity="1" /><path clip-path="url(#clip610)" d="M 0 0 M152.668 1079.15 Q149.056 1079.15 147.228 1082.72 Q145.422 1086.26 145.422 1093.39 Q145.422 1100.49 147.228 1104.06 Q149.056 1107.6 152.668 1107.6 Q156.302 1107.6 158.107 1104.06 Q159.936 1100.49 159.936 1093.39 Q159.936 1086.26 158.107 1082.72 Q156.302 1079.15 152.668 1079.15 M152.668 1075.45 Q158.478 1075.45 161.533 1080.05 Q164.612 1084.64 164.612 1093.39 Q164.612 1102.11 161.533 1106.72 Q158.478 1111.3 152.668 1111.3 Q146.857 1111.3 143.779 1106.72 Q140.723 1102.11 140.723 1093.39 Q140.723 1084.64 143.779 1080.05 Q146.857 1075.45 152.668 1075.45 Z" fill="#000000" fill-rule="evenodd" fill-opacity="1" /><path clip-path="url(#clip610)" d="M 0 0 M63.6634 750.164 L71.3023 750.164 L71.3023 723.799 L62.9921 725.465 L62.9921 721.206 L71.256 719.54 L75.9319 719.54 L75.9319 750.164 L83.5707 750.164 L83.5707 754.1 L63.6634 754.1 L63.6634 750.164 Z" fill="#000000" fill-rule="evenodd" fill-opacity="1" /><path clip-path="url(#clip610)" d="M 0 0 M98.6401 722.618 Q95.029 722.618 93.2003 726.183 Q91.3948 729.725 91.3948 736.854 Q91.3948 743.961 93.2003 747.526 Q95.029 751.067 98.6401 751.067 Q102.274 751.067 104.08 747.526 Q105.909 743.961 105.909 736.854 Q105.909 729.725 104.08 726.183 Q102.274 722.618 98.6401 722.618 M98.6401 718.915 Q104.45 718.915 107.506 723.521 Q110.584 728.104 110.584 736.854 Q110.584 745.581 107.506 750.188 Q104.45 754.771 98.6401 754.771 Q92.8299 754.771 89.7512 750.188 Q86.6957 745.581 86.6957 736.854 Q86.6957 728.104 89.7512 723.521 Q92.8299 718.915 98.6401 718.915 Z" fill="#000000" fill-rule="evenodd" fill-opacity="1" /><path clip-path="url(#clip610)" d="M 0 0 M125.654 722.618 Q122.043 722.618 120.214 726.183 Q118.408 729.725 118.408 736.854 Q118.408 743.961 120.214 747.526 Q122.043 751.067 125.654 751.067 Q129.288 751.067 131.094 747.526 Q132.922 743.961 132.922 736.854 Q132.922 729.725 131.094 726.183 Q129.288 722.618 125.654 722.618 M125.654 718.915 Q131.464 718.915 134.52 723.521 Q137.598 728.104 137.598 736.854 Q137.598 745.581 134.52 750.188 Q131.464 754.771 125.654 754.771 Q119.844 754.771 116.765 750.188 Q113.709 745.581 113.709 736.854 Q113.709 728.104 116.765 723.521 Q119.844 718.915 125.654 718.915 Z" fill="#000000" fill-rule="evenodd" fill-opacity="1" /><path clip-path="url(#clip610)" d="M 0 0 M152.668 722.618 Q149.056 722.618 147.228 726.183 Q145.422 729.725 145.422 736.854 Q145.422 743.961 147.228 747.526 Q149.056 751.067 152.668 751.067 Q156.302 751.067 158.107 747.526 Q159.936 743.961 159.936 736.854 Q159.936 729.725 158.107 726.183 Q156.302 722.618 152.668 722.618 M152.668 718.915 Q158.478 718.915 161.533 723.521 Q164.612 728.104 164.612 736.854 Q164.612 745.581 161.533 750.188 Q158.478 754.771 152.668 754.771 Q146.857 754.771 143.779 750.188 Q140.723 745.581 140.723 736.854 Q140.723 728.104 143.779 723.521 Q146.857 718.915 152.668 718.915 Z" fill="#000000" fill-rule="evenodd" fill-opacity="1" /><path clip-path="url(#clip610)" d="M 0 0 M64.6588 393.632 L72.2976 393.632 L72.2976 367.267 L63.9875 368.933 L63.9875 364.674 L72.2513 363.007 L76.9272 363.007 L76.9272 393.632 L84.5661 393.632 L84.5661 397.567 L64.6588 397.567 L64.6588 393.632 Z" fill="#000000" fill-rule="evenodd" fill-opacity="1" /><path clip-path="url(#clip610)" d="M 0 0 M89.6818 363.007 L108.038 363.007 L108.038 366.943 L93.9642 366.943 L93.9642 375.415 Q94.9827 375.068 96.0012 374.905 Q97.0197 374.72 98.0382 374.72 Q103.825 374.72 107.205 377.892 Q110.584 381.063 110.584 386.479 Q110.584 392.058 107.112 395.16 Q103.64 398.239 97.3206 398.239 Q95.1447 398.239 92.8762 397.868 Q90.6309 397.498 88.2235 396.757 L88.2235 392.058 Q90.3068 393.192 92.529 393.748 Q94.7512 394.304 97.2281 394.304 Q101.233 394.304 103.571 392.197 Q105.909 390.091 105.909 386.479 Q105.909 382.868 103.571 380.762 Q101.233 378.655 97.2281 378.655 Q95.3531 378.655 93.4781 379.072 Q91.6262 379.489 89.6818 380.368 L89.6818 363.007 Z" fill="#000000" fill-rule="evenodd" fill-opacity="1" /><path clip-path="url(#clip610)" d="M 0 0 M125.654 366.086 Q122.043 366.086 120.214 369.651 Q118.408 373.193 118.408 380.322 Q118.408 387.429 120.214 390.993 Q122.043 394.535 125.654 394.535 Q129.288 394.535 131.094 390.993 Q132.922 387.429 132.922 380.322 Q132.922 373.193 131.094 369.651 Q129.288 366.086 125.654 366.086 M125.654 362.382 Q131.464 362.382 134.52 366.989 Q137.598 371.572 137.598 380.322 Q137.598 389.049 134.52 393.655 Q131.464 398.239 125.654 398.239 Q119.844 398.239 116.765 393.655 Q113.709 389.049 113.709 380.322 Q113.709 371.572 116.765 366.989 Q119.844 362.382 125.654 362.382 Z" fill="#000000" fill-rule="evenodd" fill-opacity="1" /><path clip-path="url(#clip610)" d="M 0 0 M152.668 366.086 Q149.056 366.086 147.228 369.651 Q145.422 373.193 145.422 380.322 Q145.422 387.429 147.228 390.993 Q149.056 394.535 152.668 394.535 Q156.302 394.535 158.107 390.993 Q159.936 387.429 159.936 380.322 Q159.936 373.193 158.107 369.651 Q156.302 366.086 152.668 366.086 M152.668 362.382 Q158.478 362.382 161.533 366.989 Q164.612 371.572 164.612 380.322 Q164.612 389.049 161.533 393.655 Q158.478 398.239 152.668 398.239 Q146.857 398.239 143.779 393.655 Q140.723 389.049 140.723 380.322 Q140.723 371.572 143.779 366.989 Q146.857 362.382 152.668 362.382 Z" fill="#000000" fill-rule="evenodd" fill-opacity="1" /><path clip-path="url(#clip610)" d="M 0 0 M1191.83 18.8205 L1191.83 41.5461 L1202.12 41.5461 Q1207.83 41.5461 1210.95 38.5889 Q1214.07 35.6318 1214.07 30.163 Q1214.07 24.7348 1210.95 21.7777 Q1207.83 18.8205 1202.12 18.8205 L1191.83 18.8205 M1183.65 12.096 L1202.12 12.096 Q1212.29 12.096 1217.48 16.714 Q1222.7 21.2916 1222.7 30.163 Q1222.7 39.1155 1217.48 43.6931 Q1212.29 48.2706 1202.12 48.2706 L1191.83 48.2706 L1191.83 72.576 L1183.65 72.576 L1183.65 12.096 Z" fill="#000000" fill-rule="evenodd" fill-opacity="1" /><path clip-path="url(#clip610)" d="M 0 0 M1255.35 34.1734 Q1254.1 33.4443 1252.6 33.1202 Q1251.14 32.7556 1249.36 32.7556 Q1243.04 32.7556 1239.63 36.8875 Q1236.27 40.9789 1236.27 48.6757 L1236.27 72.576 L1228.78 72.576 L1228.78 27.2059 L1236.27 27.2059 L1236.27 34.2544 Q1238.62 30.1225 1242.39 28.1376 Q1246.16 26.1121 1251.54 26.1121 Q1252.31 26.1121 1253.24 26.2337 Q1254.18 26.3147 1255.31 26.5172 L1255.35 34.1734 Z" fill="#000000" fill-rule="evenodd" fill-opacity="1" /><path clip-path="url(#clip610)" d="M 0 0 M1263.17 27.2059 L1270.62 27.2059 L1270.62 72.576 L1263.17 72.576 L1263.17 27.2059 M1263.17 9.54393 L1270.62 9.54393 L1270.62 18.9825 L1263.17 18.9825 L1263.17 9.54393 Z" fill="#000000" fill-rule="evenodd" fill-opacity="1" /><path clip-path="url(#clip610)" d="M 0 0 M1311.09 28.9478 L1311.09 35.9153 Q1307.93 34.1734 1304.73 33.3227 Q1301.57 32.4315 1298.33 32.4315 Q1291.08 32.4315 1287.07 37.0496 Q1283.06 41.6271 1283.06 49.9314 Q1283.06 58.2358 1287.07 62.8538 Q1291.08 67.4314 1298.33 67.4314 Q1301.57 67.4314 1304.73 66.5807 Q1307.93 65.6895 1311.09 63.9476 L1311.09 70.8341 Q1307.97 72.2924 1304.61 73.0216 Q1301.29 73.7508 1297.52 73.7508 Q1287.27 73.7508 1281.24 67.3098 Q1275.2 60.8689 1275.2 49.9314 Q1275.2 38.832 1281.28 32.472 Q1287.39 26.1121 1298.01 26.1121 Q1301.45 26.1121 1304.73 26.8413 Q1308.01 27.5299 1311.09 28.9478 Z" fill="#000000" fill-rule="evenodd" fill-opacity="1" /><path clip-path="url(#clip610)" d="M 0 0 M1357.72 48.0275 L1357.72 51.6733 L1323.45 51.6733 Q1323.93 59.3701 1328.06 63.421 Q1332.24 67.4314 1339.65 67.4314 Q1343.94 67.4314 1347.95 66.3781 Q1352.01 65.3249 1355.98 63.2184 L1355.98 70.267 Q1351.97 71.9684 1347.75 72.8596 Q1343.54 73.7508 1339.2 73.7508 Q1328.35 73.7508 1321.99 67.4314 Q1315.67 61.1119 1315.67 50.3365 Q1315.67 39.1965 1321.66 32.6746 Q1327.7 26.1121 1337.91 26.1121 Q1347.06 26.1121 1352.37 32.0264 Q1357.72 37.9003 1357.72 48.0275 M1350.26 45.84 Q1350.18 39.7232 1346.82 36.0774 Q1343.5 32.4315 1337.99 32.4315 Q1331.75 32.4315 1327.98 35.9558 Q1324.26 39.4801 1323.69 45.8805 L1350.26 45.84 Z" fill="#000000" fill-rule="evenodd" fill-opacity="1" /><polyline clip-path="url(#clip612)" style="stroke:#009af9; stroke-width:12; stroke-opacity:1; fill:none" points="
  249.861,1290.95 253.888,1290.95 257.915,1406.93 261.942,1406.93 265.969,1409.76 269.996,1409.76 274.023,1372.53 278.05,1342.56 282.077,1402.94 286.104,1346.2 
  290.13,1317.85 294.157,1371.71 298.184,1441.88 302.211,1442.71 306.238,1322.96 310.265,1322.17 314.292,1390.52 318.319,1403.5 322.346,1340.93 326.373,1405.32 
  330.4,1404.22 334.426,1374.88 338.453,1368.18 342.48,1372.54 346.507,1292.5 350.534,1394.75 354.561,1332.8 358.588,1278.32 362.615,1423.4 366.642,1385.67 
  370.669,731.322 374.696,735.736 378.723,1404.21 382.749,486.891 386.776,1412.38 390.803,1415.23 394.83,1404.69 398.857,1386.89 402.884,1408.33 406.911,1354.64 
  410.938,1395.65 414.965,1341.14 418.992,1384.6 423.019,1398.51 427.046,1326.44 431.072,1389.67 435.099,1409.81 439.126,1390.93 443.153,1380.79 447.18,1343.75 
  451.207,1285.47 455.234,1352.87 459.261,1422.98 463.288,1422.64 467.315,1339.25 471.342,1417.26 475.368,1386.23 479.395,1420.4 483.422,1432.45 487.449,1403.96 
  491.476,1389.16 495.503,1424.52 499.53,1375.15 503.557,1372.69 507.584,937.497 511.611,1339.4 515.638,1370.9 519.665,1430.27 523.691,1422.47 527.718,1428.68 
  531.745,1405.27 535.772,1413.47 539.799,1299.11 543.826,1313.39 547.853,1400.83 551.88,1227.56 555.907,1086.66 559.934,1431.92 563.961,1214.82 567.987,1412.85 
  572.014,1369.96 576.041,1431.91 580.068,1410.35 584.095,1405.18 588.122,1286.19 592.149,1404.73 596.176,1385.37 600.203,1426.6 604.23,1433.48 608.257,1423.63 
  612.284,1417.92 616.31,1384.42 620.337,1402.37 624.364,1404.01 628.391,1402.28 632.418,1345.78 636.445,1370.63 640.472,1419.99 644.499,1412.95 648.526,1384.98 
  652.553,1378.32 656.58,1431.45 660.607,1438.33 664.633,1406.23 668.66,1423.17 672.687,1415.02 676.714,1201.27 680.741,1447.87 684.768,1369.81 688.795,1260.2 
  692.822,1349.78 696.849,1416.1 700.876,1314.92 704.903,1378.44 708.929,1399.73 712.956,1343.41 716.983,1422.24 721.01,1398.64 725.037,1419.8 729.064,1389.61 
  733.091,1340.76 737.118,1420.1 741.145,1419.15 745.172,1396.29 749.199,1400.72 753.226,1422.65 757.252,1386.29 761.279,1424.58 765.306,1349.99 769.333,1411.92 
  773.36,1396.6 777.387,1301.05 781.414,1429.6 785.441,1322.52 789.468,1435.65 793.495,1375.86 797.522,1427.89 801.548,1413.9 805.575,1331.71 809.602,1399.58 
  813.629,1418.12 817.656,1384.17 821.683,1384.76 825.71,1398.61 829.737,1340.31 833.764,1413.35 837.791,1409.35 841.818,1424.97 845.845,1379.32 849.871,1398.26 
  853.898,1433.58 857.925,1434.5 861.952,1418.67 865.979,1382.07 870.006,1377.45 874.033,1397.61 878.06,1381.29 882.087,1401.25 886.114,1366.51 890.141,1379.65 
  894.167,1396.89 898.194,1432.4 902.221,1384.34 906.248,1415.31 910.275,1383.16 914.302,1393.26 918.329,1420.63 922.356,1358.78 926.383,1408.48 930.41,1361.62 
  934.437,1366.78 938.464,1402.54 942.49,1398.53 946.517,1424.68 950.544,1377.84 954.571,1416.9 958.598,1368.59 962.625,1157.54 966.652,1410.48 970.679,1294.24 
  974.706,1356.14 978.733,1277.99 982.76,1409.87 986.787,1424.23 990.813,1362.16 994.84,1406.84 998.867,1397.58 1002.89,1394.58 1006.92,1395.64 1010.95,1352.02 
  1014.97,1327.54 1019,1412.7 1023.03,1372.79 1027.06,1279.27 1031.08,1383.75 1035.11,1427.71 1039.14,1428.04 1043.16,1355.01 1047.19,1416.75 1051.22,1420.78 
  1055.24,1410.44 1059.27,1392.22 1063.3,1417.17 1067.32,1442.45 1071.35,1400.58 1075.38,1405.36 1079.41,1422.79 1083.43,1437.65 1087.46,1427.66 1091.49,1406.29 
  1095.51,1368.41 1099.54,1302.96 1103.57,1439.58 1107.59,1434.47 1111.62,1411.39 1115.65,1420.83 1119.67,1381.21 1123.7,1394.11 1127.73,1378.16 1131.76,1274.22 
  1135.78,1427.96 1139.81,1265.49 1143.84,1416.08 1147.86,1435.93 1151.89,1415.98 1155.92,1343.04 1159.94,1411.85 1163.97,1381.09 1168,1381.45 1172.02,1433.74 
  1176.05,1403.63 1180.08,1399.36 1184.11,1419.22 1188.13,1439.16 1192.16,1393.79 1196.19,1422.22 1200.21,1320.66 1204.24,1345.76 1208.27,1426.92 1212.29,1436.51 
  1216.32,1435.68 1220.35,1262.8 1224.37,1439.12 1228.4,1289.18 1232.43,1329.18 1236.46,1418.7 1240.48,1338.54 1244.51,1300.47 1248.54,1390.04 1252.56,1387.42 
  1256.59,1419.4 1260.62,1402.11 1264.64,1344.64 1268.67,1409.92 1272.7,1434.67 1276.72,1351.48 1280.75,1340.96 1284.78,1177.59 1288.81,1427.12 1292.83,1381.98 
  1296.86,1427.02 1300.89,1368.02 1304.91,1405.09 1308.94,1365.48 1312.97,1359.78 1316.99,1423.82 1321.02,1372.96 1325.05,1432.3 1329.07,1376.06 1333.1,1402.84 
  1337.13,1435.57 1341.15,1370.24 1345.18,1439.89 1349.21,1437.9 1353.24,1379.62 1357.26,1406.86 1361.29,1398.84 1365.32,1430.22 1369.34,1415.82 1373.37,1308.13 
  1377.4,1331.9 1381.42,1334.2 1385.45,1418.52 1389.48,1407.73 1393.5,1432.87 1397.53,1396.97 1401.56,1397.22 1405.59,1422.17 1409.61,1211.51 1413.64,1417.05 
  1417.67,1382.14 1421.69,1374.45 1425.72,1322.71 1429.75,1408.27 1433.77,1432.77 1437.8,1438.7 1441.83,1405.11 1445.85,1354.42 1449.88,1393.33 1453.91,1301.27 
  1457.94,1420.86 1461.96,1335.35 1465.99,1438.47 1470.02,1377.61 1474.04,1336.53 1478.07,1342.76 1482.1,1393.99 1486.12,1410.86 1490.15,1418.31 1494.18,1021.33 
  1498.2,1426 1502.23,1407.08 1506.26,1392.91 1510.29,1421.36 1514.31,1389.27 1518.34,1389 1522.37,1266.93 1526.39,1396.75 1530.42,1419.45 1534.45,1364.97 
  1538.47,1405.68 1542.5,1341.4 1546.53,1412.95 1550.55,1379.48 1554.58,1421.9 1558.61,1396.25 1562.64,1426.61 1566.66,1440.34 1570.69,1410.06 1574.72,1271.55 
  1578.74,1429.98 1582.77,1431.07 1586.8,1423.78 1590.82,1438.72 1594.85,1438.58 1598.88,1346.28 1602.9,1425.71 1606.93,1405.32 1610.96,1433.83 1614.99,1431.75 
  1619.01,1416.21 1623.04,1352.27 1627.07,1381.29 1631.09,1218.84 1635.12,1409.95 1639.15,1432.77 1643.17,1406.83 1647.2,1294.78 1651.23,1270.03 1655.25,1401.06 
  1659.28,1395.76 1663.31,1411.09 1667.33,1416.48 1671.36,1402.12 1675.39,1370.06 1679.42,1325.45 1683.44,1426.44 1687.47,1405.77 1691.5,1398.32 1695.52,1402.34 
  1699.55,1436.65 1703.58,1371.34 1707.6,1398.5 1711.63,1389.67 1715.66,1425.9 1719.68,1422.62 1723.71,1378.3 1727.74,1383.97 1731.77,1396.87 1735.79,1329.26 
  1739.82,1343.37 1743.85,1377.64 1747.87,1371.23 1751.9,1428.83 1755.93,1347.15 1759.95,162.047 1763.98,1406.83 1768.01,1392.68 1772.03,1413.47 1776.06,1408.29 
  1780.09,1376.17 1784.12,1416.56 1788.14,1321.18 1792.17,1429.44 1796.2,1348.14 1800.22,1395.08 1804.25,1405.37 1808.28,1425.99 1812.3,1381.13 1816.33,1440.74 
  1820.36,1388.52 1824.38,1308.17 1828.41,1415.97 1832.44,1361 1836.47,1410.25 1840.49,1219.84 1844.52,1437.12 1848.55,1405.16 1852.57,1386.24 1856.6,1412.62 
  1860.63,1322.44 1864.65,1354.83 1868.68,1264.92 1872.71,1396.36 1876.73,1362.57 1880.76,1326.3 1884.79,1375.7 1888.82,1335.9 1892.84,1424.5 1896.87,1401.82 
  1900.9,1388.23 1904.92,1416.06 1908.95,1419.49 1912.98,1376.18 1917,1173.46 1921.03,1414.67 1925.06,1341.37 1929.08,1379.26 1933.11,1385.27 1937.14,1338.13 
  1941.17,1418.94 1945.19,1410.22 1949.22,1340.88 1953.25,1411.54 1957.27,1379.62 1961.3,1399.58 1965.33,1344.34 1969.35,1402.96 1973.38,1431.64 1977.41,1424.94 
  1981.43,1390.97 1985.46,1409.24 1989.49,1377.16 1993.51,1415.05 1997.54,1399.18 2001.57,1381.95 2005.6,1429.13 2009.62,1380.25 2013.65,1410.28 2017.68,1411.88 
  2021.7,1358.78 2025.73,1290.75 2029.76,1380.25 2033.78,1432.68 2037.81,1353.61 2041.84,1377.61 2045.86,1308.18 2049.89,1378.85 2053.92,1383.55 2057.95,1396.86 
  2061.97,1392.47 2066,1392 2070.03,1402.86 2074.05,1248.09 2078.08,1421.33 2082.11,1425.24 2086.13,1425.58 2090.16,1397.17 2094.19,1412.34 2098.21,1426.41 
  2102.24,1300.79 2106.27,1440.51 2110.3,1441.36 2114.32,1360.85 2118.35,1404.7 2122.38,1295.53 2126.4,1371.96 2130.43,1334.37 2134.46,1358.98 2138.48,1367.97 
  2142.51,1415.75 2146.54,1393.73 2150.56,1388.01 2154.59,1369.44 2158.62,1413.57 2162.65,1374.57 2166.67,1384.08 2170.7,1414.92 2174.73,1341.78 2178.75,1426.56 
  2182.78,1368.69 2186.81,1402.69 2190.83,1363.27 2194.86,1378.56 2198.89,1401.24 2202.91,1393.47 2206.94,1313.13 2210.97,1407.46 2215,1410.38 2219.02,1410.9 
  2223.05,1392.77 2227.08,1436.47 2231.1,1406.44 2235.13,1425.92 2239.16,1332.26 2243.18,1429.52 2247.21,1341.24 2251.24,1368.91 2255.26,1329.18 2259.29,1419.62 
  2263.32,1428.63 2267.35,1405.09 2271.37,1420.46 2275.4,1399.8 2279.43,1395.48 2283.45,1367.5 2287.48,1413.72 2291.51,1398.89 
  "/>
<path clip-path="url(#clip610)" d="
M1877.91 327.952 L2280.76 327.952 L2280.76 206.992 L1877.91 206.992  Z
  " fill="#ffffff" fill-rule="evenodd" fill-opacity="1"/>
<polyline clip-path="url(#clip610)" style="stroke:#000000; stroke-width:4; stroke-opacity:1; fill:none" points="
  1877.91,327.952 2280.76,327.952 2280.76,206.992 1877.91,206.992 1877.91,327.952 
  "/>
<polyline clip-path="url(#clip610)" style="stroke:#009af9; stroke-width:4; stroke-opacity:1; fill:none" points="
  1901.91,267.472 2045.91,267.472 
  "/>
<path clip-path="url(#clip610)" d="M 0 0 M2069.91 248.734 L2079.72 248.734 L2079.72 252.044 L2074.17 252.044 L2074.17 287.692 L2079.72 287.692 L2079.72 291.002 L2069.91 291.002 L2069.91 248.734 Z" fill="#000000" fill-rule="evenodd" fill-opacity="1" /><path clip-path="url(#clip610)" d="M 0 0 M2088.22 250.192 L2088.22 263.039 L2084.28 263.039 L2084.28 250.192 L2088.22 250.192 M2096.97 250.192 L2096.97 263.039 L2093.03 263.039 L2093.03 250.192 L2096.97 250.192 Z" fill="#000000" fill-rule="evenodd" fill-opacity="1" /><path clip-path="url(#clip610)" d="M 0 0 M2106.3 254.035 L2106.3 267.021 L2112.18 267.021 Q2115.44 267.021 2117.22 265.331 Q2119.01 263.641 2119.01 260.516 Q2119.01 257.414 2117.22 255.725 Q2115.44 254.035 2112.18 254.035 L2106.3 254.035 M2101.62 250.192 L2112.18 250.192 Q2117.99 250.192 2120.95 252.831 Q2123.94 255.447 2123.94 260.516 Q2123.94 265.632 2120.95 268.248 Q2117.99 270.863 2112.18 270.863 L2106.3 270.863 L2106.3 284.752 L2101.62 284.752 L2101.62 250.192 Z" fill="#000000" fill-rule="evenodd" fill-opacity="1" /><path clip-path="url(#clip610)" d="M 0 0 M2142.59 262.808 Q2141.88 262.391 2141.02 262.206 Q2140.19 261.998 2139.17 261.998 Q2135.56 261.998 2133.61 264.359 Q2131.69 266.697 2131.69 271.095 L2131.69 284.752 L2127.41 284.752 L2127.41 258.826 L2131.69 258.826 L2131.69 262.854 Q2133.03 260.493 2135.19 259.359 Q2137.34 258.201 2140.42 258.201 Q2140.86 258.201 2141.39 258.271 Q2141.92 258.317 2142.57 258.433 L2142.59 262.808 Z" fill="#000000" fill-rule="evenodd" fill-opacity="1" /><path clip-path="url(#clip610)" d="M 0 0 M2147.06 258.826 L2151.32 258.826 L2151.32 284.752 L2147.06 284.752 L2147.06 258.826 M2147.06 248.734 L2151.32 248.734 L2151.32 254.127 L2147.06 254.127 L2147.06 248.734 Z" fill="#000000" fill-rule="evenodd" fill-opacity="1" /><path clip-path="url(#clip610)" d="M 0 0 M2174.45 259.822 L2174.45 263.803 Q2172.64 262.808 2170.81 262.322 Q2169.01 261.812 2167.15 261.812 Q2163.01 261.812 2160.72 264.451 Q2158.43 267.067 2158.43 271.812 Q2158.43 276.558 2160.72 279.197 Q2163.01 281.812 2167.15 281.812 Q2169.01 281.812 2170.81 281.326 Q2172.64 280.817 2174.45 279.822 L2174.45 283.757 Q2172.66 284.59 2170.74 285.007 Q2168.84 285.423 2166.69 285.423 Q2160.83 285.423 2157.39 281.743 Q2153.94 278.062 2153.94 271.812 Q2153.94 265.47 2157.41 261.836 Q2160.9 258.201 2166.97 258.201 Q2168.94 258.201 2170.81 258.618 Q2172.69 259.012 2174.45 259.822 Z" fill="#000000" fill-rule="evenodd" fill-opacity="1" /><path clip-path="url(#clip610)" d="M 0 0 M2201.09 270.724 L2201.09 272.808 L2181.51 272.808 Q2181.78 277.206 2184.15 279.521 Q2186.53 281.812 2190.77 281.812 Q2193.22 281.812 2195.51 281.21 Q2197.83 280.609 2200.09 279.405 L2200.09 283.433 Q2197.8 284.405 2195.39 284.914 Q2192.99 285.423 2190.51 285.423 Q2184.31 285.423 2180.67 281.812 Q2177.06 278.201 2177.06 272.044 Q2177.06 265.678 2180.49 261.951 Q2183.94 258.201 2189.77 258.201 Q2195 258.201 2198.03 261.581 Q2201.09 264.937 2201.09 270.724 M2196.83 269.474 Q2196.78 265.979 2194.86 263.896 Q2192.96 261.812 2189.82 261.812 Q2186.25 261.812 2184.1 263.826 Q2181.97 265.84 2181.65 269.498 L2196.83 269.474 Z" fill="#000000" fill-rule="evenodd" fill-opacity="1" /><path clip-path="url(#clip610)" d="M 0 0 M2209.58 250.192 L2209.58 263.039 L2205.65 263.039 L2205.65 250.192 L2209.58 250.192 M2218.33 250.192 L2218.33 263.039 L2214.4 263.039 L2214.4 250.192 L2218.33 250.192 Z" fill="#000000" fill-rule="evenodd" fill-opacity="1" /><path clip-path="url(#clip610)" d="M 0 0 M2232.76 248.734 L2232.76 291.002 L2222.94 291.002 L2222.94 287.692 L2228.47 287.692 L2228.47 252.044 L2222.94 252.044 L2222.94 248.734 L2232.76 248.734 Z" fill="#000000" fill-rule="evenodd" fill-opacity="1" /></svg>
